<svg width="80" height="80" viewBox="0 0 80 80" fill="none" xmlns="http://www.w3.org/2000/svg">
<path d="M60 0H20C8.9543 0 0 8.9543 0 20V60C0 71.0457 8.9543 80 20 80H60C71.0457 80 80 71.0457 80 60V20C80 8.9543 71.0457 0 60 0Z" fill="#EFF6FF"/>
<path d="M18.75 45H13.75C11.6789 45 10 46.6789 10 48.75V66.25C10 68.3211 11.6789 70 13.75 70H18.75C20.8211 70 22.5 68.3211 22.5 66.25V48.75C22.5 46.6789 20.8211 45 18.75 45Z" fill="#BFDBFE"/>
<path d="M36.25 32.5H31.25C29.1789 32.5 27.5 34.1789 27.5 36.25V66.25C27.5 68.3211 29.1789 70 31.25 70H36.25C38.3211 70 40 68.3211 40 66.25V36.25C40 34.1789 38.3211 32.5 36.25 32.5Z" fill="#60A5FA"/>
<path d="M53.75 15H48.75C46.6789 15 45 16.6789 45 18.75V66.25C45 68.3211 46.6789 70 48.75 70H53.75C55.8211 70 57.5 68.3211 57.5 66.25V18.75C57.5 16.6789 55.8211 15 53.75 15Z" fill="#1D4ED8"/>
<path d="M10 65L27.5 47.5L45 25L60 15" stroke="#1E40AF" stroke-width="1.8" stroke-linecap="round"/>
<path d="M60 21.25C63.4518 21.25 66.25 18.4518 66.25 15C66.25 11.5482 63.4518 8.75 60 8.75C56.5482 8.75 53.75 11.5482 53.75 15C53.75 18.4518 56.5482 21.25 60 21.25Z" fill="#1E40AF"/>
</svg>
