<svg width="64" height="64" viewBox="0 0 64 64" fill="none" xmlns="http://www.w3.org/2000/svg">
<path d="M48 0H16C7.16344 0 0 7.16344 0 16V48C0 56.8366 7.16344 64 16 64H48C56.8366 64 64 56.8366 64 48V16C64 7.16344 56.8366 0 48 0Z" fill="#EFF6FF"/>
<path d="M15 36H11C9.34315 36 8 37.3431 8 39V53C8 54.6569 9.34315 56 11 56H15C16.6569 56 18 54.6569 18 53V39C18 37.3431 16.6569 36 15 36Z" fill="#BFDBFE"/>
<path d="M29 26H25C23.3431 26 22 27.3431 22 29V53C22 54.6569 23.3431 56 25 56H29C30.6569 56 32 54.6569 32 53V29C32 27.3431 30.6569 26 29 26Z" fill="#60A5FA"/>
<path d="M43 12H39C37.3431 12 36 13.3431 36 15V53C36 54.6569 37.3431 56 39 56H43C44.6569 56 46 54.6569 46 53V15C46 13.3431 44.6569 12 43 12Z" fill="#1D4ED8"/>
<path d="M8 52L22 38L36 20L48 12" stroke="#1E40AF" stroke-width="1.8" stroke-linecap="round"/>
<path d="M48 17C50.7614 17 53 14.7614 53 12C53 9.23858 50.7614 7 48 7C45.2386 7 43 9.23858 43 12C43 14.7614 45.2386 17 48 17Z" fill="#1E40AF"/>
</svg>
