<svg width="32" height="32" viewBox="0 0 32 32" fill="none" xmlns="http://www.w3.org/2000/svg">
<g clip-path="url(#clip0_30_32)">
<path d="M24 0H8C3.58172 0 0 3.58172 0 8V24C0 28.4183 3.58172 32 8 32H24C28.4183 32 32 28.4183 32 24V8C32 3.58172 28.4183 0 24 0Z" fill="#EFF6FF"/>
<path d="M7.5 18H5.5C4.67157 18 4 18.6716 4 19.5V26.5C4 27.3284 4.67157 28 5.5 28H7.5C8.32843 28 9 27.3284 9 26.5V19.5C9 18.6716 8.32843 18 7.5 18Z" fill="#BFDBFE"/>
<path d="M14.5 13H12.5C11.6716 13 11 13.6716 11 14.5V26.5C11 27.3284 11.6716 28 12.5 28H14.5C15.3284 28 16 27.3284 16 26.5V14.5C16 13.6716 15.3284 13 14.5 13Z" fill="#60A5FA"/>
<path d="M21.5 6H19.5C18.6716 6 18 6.67157 18 7.5V26.5C18 27.3284 18.6716 28 19.5 28H21.5C22.3284 28 23 27.3284 23 26.5V7.5C23 6.67157 22.3284 6 21.5 6Z" fill="#1D4ED8"/>
<path d="M4 26L11 19L18 10L24 6" stroke="#1E40AF" stroke-width="1.8" stroke-linecap="round"/>
<path d="M24 8.5C25.3807 8.5 26.5 7.38071 26.5 6C26.5 4.61929 25.3807 3.5 24 3.5C22.6193 3.5 21.5 4.61929 21.5 6C21.5 7.38071 22.6193 8.5 24 8.5Z" fill="#1E40AF"/>
</g>
<defs>
<clipPath id="clip0_30_32">
<rect width="32" height="32" fill="white"/>
</clipPath>
</defs>
</svg>
