<svg width="48" height="48" viewBox="0 0 48 48" fill="none" xmlns="http://www.w3.org/2000/svg">
<g clip-path="url(#clip0_30_40)">
<path d="M36 0H12C5.37258 0 0 5.37258 0 12V36C0 42.6274 5.37258 48 12 48H36C42.6274 48 48 42.6274 48 36V12C48 5.37258 42.6274 0 36 0Z" fill="#EFF6FF"/>
<path d="M11.25 27H8.25C7.00736 27 6 28.0074 6 29.25V39.75C6 40.9926 7.00736 42 8.25 42H11.25C12.4926 42 13.5 40.9926 13.5 39.75V29.25C13.5 28.0074 12.4926 27 11.25 27Z" fill="#BFDBFE"/>
<path d="M21.75 19.5H18.75C17.5074 19.5 16.5 20.5074 16.5 21.75V39.75C16.5 40.9926 17.5074 42 18.75 42H21.75C22.9926 42 24 40.9926 24 39.75V21.75C24 20.5074 22.9926 19.5 21.75 19.5Z" fill="#60A5FA"/>
<path d="M32.25 9H29.25C28.0074 9 27 10.0074 27 11.25V39.75C27 40.9926 28.0074 42 29.25 42H32.25C33.4926 42 34.5 40.9926 34.5 39.75V11.25C34.5 10.0074 33.4926 9 32.25 9Z" fill="#1D4ED8"/>
<path d="M6 39L16.5 28.5L27 15L36 9" stroke="#1E40AF" stroke-width="1.8" stroke-linecap="round"/>
<path d="M36 12.75C38.0711 12.75 39.75 11.0711 39.75 9C39.75 6.92893 38.0711 5.25 36 5.25C33.9289 5.25 32.25 6.92893 32.25 9C32.25 11.0711 33.9289 12.75 36 12.75Z" fill="#1E40AF"/>
</g>
<defs>
<clipPath id="clip0_30_40">
<rect width="48" height="48" fill="white"/>
</clipPath>
</defs>
</svg>
