<svg width="360" height="104" viewBox="0 0 360 104" fill="none" xmlns="http://www.w3.org/2000/svg">
<g clip-path="url(#clip0_30_105)">
<path d="M344 0H16C7.16344 0 0 7.16344 0 16V88C0 96.8366 7.16344 104 16 104H344C352.837 104 360 96.8366 360 88V16C360 7.16344 352.837 0 344 0Z" fill="#EFF6FF"/>
<path d="M29 46H23C21.3431 46 20 47.3431 20 49V81C20 82.6569 21.3431 84 23 84H29C30.6569 84 32 82.6569 32 81V49C32 47.3431 30.6569 46 29 46Z" fill="#BFDBFE"/>
<path d="M46 36H40C38.3431 36 37 37.3431 37 39V81C37 82.6569 38.3431 84 40 84H46C47.6569 84 49 82.6569 49 81V39C49 37.3431 47.6569 36 46 36Z" fill="#60A5FA"/>
<path d="M63 24H57C55.3431 24 54 25.3431 54 27V81C54 82.6569 55.3431 84 57 84H63C64.6569 84 66 82.6569 66 81V27C66 25.3431 64.6569 24 63 24Z" fill="#1D4ED8"/>
<path d="M20 82C31.3333 68.6667 42.6667 54.6667 54 40L68 30" stroke="#1E40AF" stroke-width="2.5" stroke-linecap="round"/>
<path d="M68 34C70.2091 34 72 32.2091 72 30C72 27.7909 70.2091 26 68 26C65.7909 26 64 27.7909 64 30C64 32.2091 65.7909 34 68 34Z" fill="#1E40AF"/>
<path d="M88 12V92" stroke="black" stroke-opacity="0.12" stroke-width="0.5"/>
<path d="M105.938 44V28H115.531V29.7187H107.875V35.125H114.813V36.8437H107.875V44H105.938ZM118.6 44V32H120.443V44H118.6ZM119.537 30C119.178 30 118.868 29.8776 118.607 29.6328C118.352 29.388 118.225 29.0938 118.225 28.75C118.225 28.4063 118.352 28.112 118.607 27.8672C118.868 27.6224 119.178 27.5 119.537 27.5C119.896 27.5 120.204 27.6224 120.459 27.8672C120.719 28.112 120.85 28.4063 120.85 28.75C120.85 29.0938 120.719 29.388 120.459 29.6328C120.204 29.8776 119.896 30 119.537 30ZM125.664 36.7812V44H123.82V32H125.602V33.875H125.758C126.039 33.2656 126.466 32.776 127.039 32.4063C127.612 32.0313 128.352 31.8438 129.258 31.8438C130.07 31.8438 130.781 32.0104 131.391 32.3437C132 32.6719 132.474 33.1719 132.813 33.8437C133.151 34.5104 133.32 35.3542 133.32 36.375V44H131.477V36.5C131.477 35.5573 131.232 34.8229 130.742 34.2969C130.253 33.7656 129.581 33.5 128.727 33.5C128.138 33.5 127.612 33.6276 127.148 33.8828C126.69 34.138 126.328 34.5104 126.063 35C125.797 35.4896 125.664 36.0833 125.664 36.7812ZM140.221 44.2813C139.46 44.2813 138.77 44.138 138.15 43.8516C137.531 43.5599 137.038 43.1406 136.674 42.5938C136.309 42.0417 136.127 41.375 136.127 40.5937C136.127 39.9062 136.262 39.349 136.533 38.9219C136.804 38.4896 137.166 38.151 137.619 37.9062C138.072 37.6615 138.572 37.4792 139.119 37.3594C139.671 37.2344 140.226 37.1354 140.783 37.0625C141.512 36.9687 142.104 36.8984 142.557 36.8516C143.015 36.7995 143.348 36.7135 143.557 36.5937C143.77 36.474 143.877 36.2656 143.877 35.9687V35.9062C143.877 35.1354 143.666 34.5365 143.244 34.1094C142.827 33.6823 142.195 33.4687 141.346 33.4687C140.465 33.4687 139.775 33.6615 139.275 34.0469C138.775 34.4323 138.424 34.8437 138.221 35.2812L136.471 34.6562C136.783 33.9271 137.2 33.3594 137.721 32.9531C138.247 32.5417 138.82 32.2552 139.439 32.0937C140.064 31.9271 140.679 31.8438 141.283 31.8438C141.669 31.8438 142.111 31.8906 142.611 31.9844C143.117 32.0729 143.604 32.2578 144.072 32.5391C144.546 32.8203 144.939 33.2448 145.252 33.8125C145.564 34.3802 145.721 35.1406 145.721 36.0938V44H143.877V42.375H143.783C143.658 42.6354 143.45 42.9141 143.158 43.2109C142.867 43.5078 142.479 43.7604 141.994 43.9687C141.51 44.1771 140.919 44.2813 140.221 44.2813ZM140.502 42.625C141.231 42.625 141.846 42.4818 142.346 42.1953C142.851 41.9089 143.231 41.5391 143.486 41.0859C143.747 40.6328 143.877 40.1562 143.877 39.6562V37.9687C143.799 38.0625 143.627 38.1484 143.361 38.2266C143.101 38.2995 142.799 38.3646 142.455 38.4219C142.117 38.474 141.786 38.5208 141.463 38.5625C141.145 38.599 140.887 38.6302 140.689 38.6562C140.21 38.7187 139.762 38.8203 139.346 38.9609C138.934 39.0964 138.601 39.3021 138.346 39.5781C138.096 39.849 137.971 40.2187 137.971 40.6875C137.971 41.3281 138.208 41.8125 138.682 42.1406C139.161 42.4635 139.768 42.625 140.502 42.625ZM150.93 36.7812V44H149.086V32H150.867V33.875H151.023C151.305 33.2656 151.732 32.776 152.305 32.4063C152.878 32.0313 153.617 31.8438 154.523 31.8438C155.336 31.8438 156.047 32.0104 156.656 32.3437C157.266 32.6719 157.74 33.1719 158.078 33.8437C158.417 34.5104 158.586 35.3542 158.586 36.375V44H156.742V36.5C156.742 35.5573 156.497 34.8229 156.008 34.2969C155.518 33.7656 154.846 33.5 153.992 33.5C153.404 33.5 152.878 33.6276 152.414 33.8828C151.956 34.138 151.594 34.5104 151.328 35C151.063 35.4896 150.93 36.0833 150.93 36.7812ZM166.83 44.25C165.705 44.25 164.736 43.9844 163.924 43.4531C163.111 42.9219 162.486 42.1901 162.049 41.2578C161.611 40.3255 161.393 39.2604 161.393 38.0625C161.393 36.8437 161.617 35.7682 162.064 34.8359C162.518 33.8984 163.148 33.1667 163.955 32.6406C164.768 32.1094 165.715 31.8438 166.799 31.8438C167.643 31.8438 168.403 32 169.08 32.3125C169.757 32.625 170.312 33.0625 170.744 33.625C171.176 34.1875 171.445 34.8437 171.549 35.5937H169.705C169.564 35.0469 169.252 34.5625 168.768 34.1406C168.288 33.7135 167.643 33.5 166.83 33.5C166.111 33.5 165.481 33.6875 164.939 34.0625C164.403 34.4323 163.984 34.9557 163.682 35.6328C163.385 36.3047 163.236 37.0937 163.236 38C163.236 38.9271 163.382 39.7344 163.674 40.4219C163.971 41.1094 164.387 41.6432 164.924 42.0234C165.465 42.4036 166.101 42.5938 166.83 42.5938C167.309 42.5938 167.744 42.5104 168.135 42.3437C168.525 42.1771 168.856 41.9375 169.127 41.625C169.398 41.3125 169.59 40.9375 169.705 40.5H171.549C171.445 41.2083 171.187 41.8464 170.775 42.4141C170.369 42.9766 169.83 43.4245 169.158 43.7578C168.492 44.0859 167.715 44.25 166.83 44.25ZM179.275 44.25C178.119 44.25 177.122 43.9948 176.283 43.4844C175.45 42.9688 174.807 42.25 174.354 41.3281C173.906 40.401 173.682 39.3229 173.682 38.0938C173.682 36.8646 173.906 35.7812 174.354 34.8437C174.807 33.901 175.437 33.1667 176.244 32.6406C177.057 32.1094 178.005 31.8438 179.088 31.8438C179.713 31.8438 180.33 31.9479 180.939 32.1562C181.549 32.3646 182.104 32.7031 182.604 33.1719C183.104 33.6354 183.502 34.25 183.799 35.0156C184.096 35.7812 184.244 36.724 184.244 37.8437V38.625H174.994V37.0312H182.369C182.369 36.3542 182.234 35.75 181.963 35.2187C181.697 34.6875 181.317 34.2682 180.822 33.9609C180.333 33.6536 179.755 33.5 179.088 33.5C178.354 33.5 177.718 33.6823 177.182 34.0469C176.65 34.4062 176.242 34.875 175.955 35.4531C175.669 36.0312 175.525 36.651 175.525 37.3125V38.375C175.525 39.2813 175.682 40.0495 175.994 40.6797C176.312 41.3047 176.752 41.7812 177.314 42.1094C177.877 42.4323 178.531 42.5938 179.275 42.5938C179.76 42.5938 180.197 42.526 180.588 42.3906C180.984 42.25 181.325 42.0417 181.611 41.7656C181.898 41.4844 182.119 41.1354 182.275 40.7187L184.057 41.2188C183.869 41.8229 183.554 42.3542 183.111 42.8125C182.669 43.2656 182.122 43.6198 181.471 43.875C180.82 44.125 180.088 44.25 179.275 44.25Z" fill="#1D4ED8"/>
<path d="M118.813 57H116.875C116.76 56.4427 116.56 55.9531 116.273 55.5312C115.992 55.1094 115.648 54.7552 115.242 54.4688C114.841 54.1771 114.396 53.9583 113.906 53.8125C113.417 53.6667 112.906 53.5937 112.375 53.5937C111.406 53.5937 110.529 53.8385 109.742 54.3281C108.961 54.8177 108.339 55.5391 107.875 56.4922C107.417 57.4453 107.188 58.6146 107.188 60C107.188 61.3854 107.417 62.5547 107.875 63.5078C108.339 64.4609 108.961 65.1823 109.742 65.6719C110.529 66.1615 111.406 66.4062 112.375 66.4062C112.906 66.4062 113.417 66.3333 113.906 66.1875C114.396 66.0417 114.841 65.8255 115.242 65.5391C115.648 65.2474 115.992 64.8906 116.273 64.4687C116.56 64.0417 116.76 63.5521 116.875 63H118.813C118.667 63.8177 118.401 64.5495 118.016 65.1953C117.63 65.8411 117.151 66.3906 116.578 66.8437C116.005 67.2917 115.362 67.6328 114.648 67.8672C113.94 68.1016 113.182 68.2187 112.375 68.2187C111.01 68.2187 109.797 67.8854 108.734 67.2188C107.672 66.5521 106.836 65.6042 106.227 64.375C105.617 63.1458 105.313 61.6875 105.313 60C105.313 58.3125 105.617 56.8542 106.227 55.625C106.836 54.3958 107.672 53.4479 108.734 52.7812C109.797 52.1146 111.01 51.7812 112.375 51.7812C113.182 51.7812 113.94 51.8984 114.648 52.1328C115.362 52.3672 116.005 52.7109 116.578 53.1641C117.151 53.612 117.63 54.1589 118.016 54.8047C118.401 55.4453 118.667 56.1771 118.813 57ZM126.568 68.25C125.485 68.25 124.535 67.9922 123.717 67.4766C122.904 66.9609 122.269 66.2396 121.811 65.3125C121.357 64.3854 121.131 63.3021 121.131 62.0625C121.131 60.8125 121.357 59.7214 121.811 58.7891C122.269 57.8568 122.904 57.1328 123.717 56.6172C124.535 56.1016 125.485 55.8438 126.568 55.8438C127.652 55.8438 128.6 56.1016 129.412 56.6172C130.23 57.1328 130.865 57.8568 131.318 58.7891C131.777 59.7214 132.006 60.8125 132.006 62.0625C132.006 63.3021 131.777 64.3854 131.318 65.3125C130.865 66.2396 130.23 66.9609 129.412 67.4766C128.6 67.9922 127.652 68.25 126.568 68.25ZM126.568 66.5938C127.391 66.5938 128.068 66.3828 128.6 65.9609C129.131 65.5391 129.524 64.9844 129.779 64.2969C130.035 63.6094 130.162 62.8646 130.162 62.0625C130.162 61.2604 130.035 60.513 129.779 59.8203C129.524 59.1276 129.131 58.5677 128.6 58.1406C128.068 57.7135 127.391 57.5 126.568 57.5C125.745 57.5 125.068 57.7135 124.537 58.1406C124.006 58.5677 123.613 59.1276 123.357 59.8203C123.102 60.513 122.975 61.2604 122.975 62.0625C122.975 62.8646 123.102 63.6094 123.357 64.2969C123.613 64.9844 124.006 65.5391 124.537 65.9609C125.068 66.3828 125.745 66.5938 126.568 66.5938ZM136.664 60.7812V68H134.82V56H136.602V57.875H136.758C137.039 57.2656 137.466 56.776 138.039 56.4063C138.612 56.0313 139.352 55.8438 140.258 55.8438C141.07 55.8438 141.781 56.0104 142.391 56.3437C143 56.6719 143.474 57.1719 143.813 57.8437C144.151 58.5104 144.32 59.3542 144.32 60.375V68H142.477V60.5C142.477 59.5573 142.232 58.8229 141.742 58.2969C141.253 57.7656 140.581 57.5 139.727 57.5C139.138 57.5 138.612 57.6276 138.148 57.8828C137.69 58.138 137.328 58.5104 137.063 59C136.797 59.4896 136.664 60.0833 136.664 60.7812ZM152.908 56V57.5625H146.689V56H152.908ZM148.502 53.125H150.346V64.5625C150.346 65.0833 150.421 65.474 150.572 65.7344C150.729 65.9896 150.926 66.1615 151.166 66.25C151.411 66.3333 151.669 66.375 151.939 66.375C152.143 66.375 152.309 66.3646 152.439 66.3437C152.57 66.3177 152.674 66.2969 152.752 66.2812L153.127 67.9375C153.002 67.9844 152.827 68.0313 152.604 68.0781C152.38 68.1302 152.096 68.1563 151.752 68.1563C151.231 68.1563 150.721 68.0443 150.221 67.8203C149.726 67.5964 149.314 67.2552 148.986 66.7969C148.663 66.3385 148.502 65.7604 148.502 65.0625V53.125ZM155.682 68V56H157.463V57.8125H157.588C157.807 57.2188 158.202 56.737 158.775 56.3672C159.348 55.9974 159.994 55.8125 160.713 55.8125C160.848 55.8125 161.018 55.8151 161.221 55.8203C161.424 55.8255 161.577 55.8333 161.682 55.8438V57.7187C161.619 57.7031 161.476 57.6797 161.252 57.6484C161.033 57.612 160.801 57.5937 160.557 57.5937C159.973 57.5937 159.452 57.7161 158.994 57.9609C158.541 58.2005 158.182 58.5339 157.916 58.9609C157.656 59.3828 157.525 59.8646 157.525 60.4062V68H155.682ZM168.377 68.25C167.294 68.25 166.343 67.9922 165.525 67.4766C164.713 66.9609 164.077 66.2396 163.619 65.3125C163.166 64.3854 162.939 63.3021 162.939 62.0625C162.939 60.8125 163.166 59.7214 163.619 58.7891C164.077 57.8568 164.713 57.1328 165.525 56.6172C166.343 56.1016 167.294 55.8438 168.377 55.8438C169.46 55.8438 170.408 56.1016 171.221 56.6172C172.038 57.1328 172.674 57.8568 173.127 58.7891C173.585 59.7214 173.814 60.8125 173.814 62.0625C173.814 63.3021 173.585 64.3854 173.127 65.3125C172.674 66.2396 172.038 66.9609 171.221 67.4766C170.408 67.9922 169.46 68.25 168.377 68.25ZM168.377 66.5938C169.2 66.5938 169.877 66.3828 170.408 65.9609C170.939 65.5391 171.333 64.9844 171.588 64.2969C171.843 63.6094 171.971 62.8646 171.971 62.0625C171.971 61.2604 171.843 60.513 171.588 59.8203C171.333 59.1276 170.939 58.5677 170.408 58.1406C169.877 57.7135 169.2 57.5 168.377 57.5C167.554 57.5 166.877 57.7135 166.346 58.1406C165.814 58.5677 165.421 59.1276 165.166 59.8203C164.911 60.513 164.783 61.2604 164.783 62.0625C164.783 62.8646 164.911 63.6094 165.166 64.2969C165.421 64.9844 165.814 65.5391 166.346 65.9609C166.877 66.3828 167.554 66.5938 168.377 66.5938ZM178.473 52V68H176.629V52H178.473Z" fill="#0F172A"/>
<path d="M104.969 86V78H105.891V80.9531H105.969C106.036 80.849 106.13 80.7161 106.25 80.5547C106.372 80.3906 106.547 80.2448 106.773 80.1172C107.003 79.987 107.313 79.9219 107.703 79.9219C108.208 79.9219 108.654 80.0482 109.039 80.3008C109.424 80.5534 109.725 80.9115 109.941 81.375C110.158 81.8385 110.266 82.3854 110.266 83.0156C110.266 83.651 110.158 84.2018 109.941 84.668C109.725 85.1315 109.426 85.4909 109.043 85.7461C108.66 85.9987 108.219 86.125 107.719 86.125C107.333 86.125 107.025 86.0612 106.793 85.9336C106.561 85.8034 106.383 85.6562 106.258 85.4922C106.133 85.3255 106.036 85.1875 105.969 85.0781H105.859V86H104.969ZM105.875 83C105.875 83.4531 105.941 83.8529 106.074 84.1992C106.207 84.543 106.401 84.8125 106.656 85.0078C106.911 85.2005 107.224 85.2969 107.594 85.2969C107.979 85.2969 108.301 85.1953 108.559 84.9922C108.819 84.7865 109.014 84.5104 109.145 84.1641C109.277 83.8151 109.344 83.4271 109.344 83C109.344 82.5781 109.279 82.1979 109.148 81.8594C109.021 81.5182 108.827 81.2487 108.566 81.0508C108.309 80.8503 107.984 80.75 107.594 80.75C107.219 80.75 106.904 80.8451 106.648 81.0352C106.393 81.2227 106.201 81.4857 106.07 81.8242C105.94 82.1602 105.875 82.5521 105.875 83ZM112.055 88.25C111.898 88.25 111.759 88.237 111.637 88.2109C111.514 88.1875 111.43 88.1641 111.383 88.1406L111.617 87.3281C111.841 87.3854 112.039 87.4063 112.211 87.3906C112.383 87.375 112.535 87.2982 112.668 87.1602C112.803 87.0247 112.927 86.8047 113.039 86.5L113.211 86.0313L110.992 80H111.992L113.648 84.7812H113.711L115.367 80H116.367L113.82 86.875C113.706 87.1849 113.564 87.4414 113.395 87.6445C113.225 87.8503 113.029 88.0026 112.805 88.1016C112.583 88.2005 112.333 88.25 112.055 88.25ZM120.803 78H121.959L124.678 84.6406H124.771L127.49 78H128.646V86H127.74V79.9219H127.662L125.162 86H124.287L121.787 79.9219H121.709V86H120.803V78ZM132.979 86.125C132.401 86.125 131.903 85.9974 131.483 85.7422C131.067 85.4844 130.745 85.125 130.519 84.6641C130.295 84.2005 130.183 83.6615 130.183 83.0469C130.183 82.4323 130.295 81.8906 130.519 81.4219C130.745 80.9505 131.06 80.5833 131.464 80.3203C131.87 80.0547 132.344 79.9219 132.886 79.9219C133.198 79.9219 133.507 79.974 133.812 80.0781C134.116 80.1823 134.394 80.3516 134.644 80.5859C134.894 80.8177 135.093 81.125 135.241 81.5078C135.39 81.8906 135.464 82.362 135.464 82.9219V83.3125H130.839V82.5156H134.526C134.526 82.1771 134.459 81.875 134.323 81.6094C134.19 81.3437 134 81.1341 133.753 80.9805C133.508 80.8268 133.219 80.75 132.886 80.75C132.519 80.75 132.201 80.8411 131.933 81.0234C131.667 81.2031 131.463 81.4375 131.319 81.7266C131.176 82.0156 131.104 82.3255 131.104 82.6562V83.1875C131.104 83.6406 131.183 84.0247 131.339 84.3398C131.498 84.6523 131.718 84.8906 131.999 85.0547C132.28 85.2161 132.607 85.2969 132.979 85.2969C133.222 85.2969 133.44 85.263 133.636 85.1953C133.834 85.125 134.004 85.0208 134.147 84.8828C134.291 84.7422 134.401 84.5677 134.479 84.3594L135.37 84.6094C135.276 84.9115 135.119 85.1771 134.897 85.4062C134.676 85.6328 134.403 85.8099 134.077 85.9375C133.752 86.0625 133.386 86.125 132.979 86.125ZM137.788 82.3906V86H136.866V80H137.757V80.9375H137.835C137.976 80.6328 138.189 80.388 138.476 80.2031C138.762 80.0156 139.132 79.9219 139.585 79.9219C139.991 79.9219 140.347 80.0052 140.651 80.1719C140.956 80.3359 141.193 80.5859 141.362 80.9219C141.532 81.2552 141.616 81.6771 141.616 82.1875V86H140.694V82.25C140.694 81.7786 140.572 81.4115 140.327 81.1484C140.082 80.8828 139.746 80.75 139.319 80.75C139.025 80.75 138.762 80.8138 138.53 80.9414C138.301 81.069 138.12 81.2552 137.987 81.5C137.854 81.7448 137.788 82.0417 137.788 82.3906ZM145.816 86.125C145.238 86.125 144.74 85.9974 144.32 85.7422C143.904 85.4844 143.582 85.125 143.355 84.6641C143.132 84.2005 143.02 83.6615 143.02 83.0469C143.02 82.4323 143.132 81.8906 143.355 81.4219C143.582 80.9505 143.897 80.5833 144.301 80.3203C144.707 80.0547 145.181 79.9219 145.723 79.9219C146.035 79.9219 146.344 79.974 146.648 80.0781C146.953 80.1823 147.23 80.3516 147.48 80.5859C147.73 80.8177 147.93 81.125 148.078 81.5078C148.227 81.8906 148.301 82.362 148.301 82.9219V83.3125H143.676V82.5156H147.363C147.363 82.1771 147.296 81.875 147.16 81.6094C147.027 81.3437 146.837 81.1341 146.59 80.9805C146.345 80.8268 146.056 80.75 145.723 80.75C145.355 80.75 145.038 80.8411 144.77 81.0234C144.504 81.2031 144.299 81.4375 144.156 81.7266C144.013 82.0156 143.941 82.3255 143.941 82.6562V83.1875C143.941 83.6406 144.02 84.0247 144.176 84.3398C144.335 84.6523 144.555 84.8906 144.836 85.0547C145.117 85.2161 145.444 85.2969 145.816 85.2969C146.059 85.2969 146.277 85.263 146.473 85.1953C146.671 85.125 146.841 85.0208 146.984 84.8828C147.128 84.7422 147.238 84.5677 147.316 84.3594L148.207 84.6094C148.113 84.9115 147.956 85.1771 147.734 85.4062C147.513 85.6328 147.24 85.8099 146.914 85.9375C146.589 86.0625 146.223 86.125 145.816 86.125ZM149.531 86V85.2969L152.938 80.9219V80.8594H149.641V80H154.125V80.7344L150.813 85.0781V85.1406H154.234V86H149.531ZM157.998 86.125C157.42 86.125 156.921 85.9974 156.502 85.7422C156.085 85.4844 155.764 85.125 155.537 84.6641C155.313 84.2005 155.201 83.6615 155.201 83.0469C155.201 82.4323 155.313 81.8906 155.537 81.4219C155.764 80.9505 156.079 80.5833 156.482 80.3203C156.889 80.0547 157.363 79.9219 157.904 79.9219C158.217 79.9219 158.525 79.974 158.83 80.0781C159.135 80.1823 159.412 80.3516 159.662 80.5859C159.912 80.8177 160.111 81.125 160.26 81.5078C160.408 81.8906 160.482 82.362 160.482 82.9219V83.3125H155.857V82.5156H159.545C159.545 82.1771 159.477 81.875 159.342 81.6094C159.209 81.3437 159.019 81.1341 158.771 80.9805C158.527 80.8268 158.238 80.75 157.904 80.75C157.537 80.75 157.219 80.8411 156.951 81.0234C156.686 81.2031 156.481 81.4375 156.338 81.7266C156.195 82.0156 156.123 82.3255 156.123 82.6562V83.1875C156.123 83.6406 156.201 84.0247 156.357 84.3398C156.516 84.6523 156.736 84.8906 157.018 85.0547C157.299 85.2161 157.626 85.2969 157.998 85.2969C158.24 85.2969 158.459 85.263 158.654 85.1953C158.852 85.125 159.023 85.0208 159.166 84.8828C159.309 84.7422 159.42 84.5677 159.498 84.3594L160.389 84.6094C160.295 84.9115 160.137 85.1771 159.916 85.4062C159.695 85.6328 159.421 85.8099 159.096 85.9375C158.77 86.0625 158.404 86.125 157.998 86.125ZM166.135 81.3437L165.307 81.5781C165.255 81.4401 165.178 81.306 165.076 81.1758C164.977 81.043 164.842 80.9336 164.67 80.8477C164.498 80.7617 164.278 80.7187 164.01 80.7187C163.643 80.7187 163.337 80.8034 163.092 80.9727C162.85 81.1393 162.729 81.3516 162.729 81.6094C162.729 81.8385 162.812 82.0195 162.979 82.1523C163.145 82.2852 163.406 82.3958 163.76 82.4844L164.65 82.7031C165.187 82.8333 165.587 83.0326 165.85 83.3008C166.113 83.5664 166.244 83.9089 166.244 84.3281C166.244 84.6719 166.145 84.9792 165.947 85.25C165.752 85.5208 165.479 85.7344 165.127 85.8906C164.775 86.0469 164.367 86.125 163.9 86.125C163.288 86.125 162.782 85.9922 162.381 85.7266C161.98 85.4609 161.726 85.0729 161.619 84.5625L162.494 84.3437C162.577 84.6667 162.735 84.9089 162.967 85.0703C163.201 85.2318 163.507 85.3125 163.885 85.3125C164.314 85.3125 164.656 85.2214 164.908 85.0391C165.163 84.8542 165.291 84.6328 165.291 84.375C165.291 84.1667 165.218 83.9922 165.072 83.8516C164.926 83.7083 164.702 83.6016 164.4 83.5312L163.4 83.2969C162.851 83.1667 162.447 82.9648 162.189 82.6914C161.934 82.4154 161.807 82.0703 161.807 81.6562C161.807 81.3177 161.902 81.0182 162.092 80.7578C162.285 80.4974 162.546 80.293 162.877 80.1445C163.21 79.9961 163.588 79.9219 164.01 79.9219C164.604 79.9219 165.07 80.0521 165.408 80.3125C165.749 80.5729 165.992 80.9167 166.135 81.3437ZM170.413 78.8594V78H176.413V78.8594H173.897V86H172.929V78.8594H170.413ZM179.429 86.125C178.851 86.125 178.352 85.9974 177.933 85.7422C177.516 85.4844 177.194 85.125 176.968 84.6641C176.744 84.2005 176.632 83.6615 176.632 83.0469C176.632 82.4323 176.744 81.8906 176.968 81.4219C177.194 80.9505 177.509 80.5833 177.913 80.3203C178.319 80.0547 178.793 79.9219 179.335 79.9219C179.647 79.9219 179.956 79.974 180.261 80.0781C180.565 80.1823 180.843 80.3516 181.093 80.5859C181.343 80.8177 181.542 81.125 181.69 81.5078C181.839 81.8906 181.913 82.362 181.913 82.9219V83.3125H177.288V82.5156H180.976C180.976 82.1771 180.908 81.875 180.772 81.6094C180.64 81.3437 180.45 81.1341 180.202 80.9805C179.957 80.8268 179.668 80.75 179.335 80.75C178.968 80.75 178.65 80.8411 178.382 81.0234C178.116 81.2031 177.912 81.4375 177.769 81.7266C177.625 82.0156 177.554 82.3255 177.554 82.6562V83.1875C177.554 83.6406 177.632 84.0247 177.788 84.3398C177.947 84.6523 178.167 84.8906 178.448 85.0547C178.729 85.2161 179.056 85.2969 179.429 85.2969C179.671 85.2969 179.89 85.263 180.085 85.1953C180.283 85.125 180.453 85.0208 180.597 84.8828C180.74 84.7422 180.851 84.5677 180.929 84.3594L181.819 84.6094C181.726 84.9115 181.568 85.1771 181.347 85.4062C181.125 85.6328 180.852 85.8099 180.526 85.9375C180.201 86.0625 179.835 86.125 179.429 86.125ZM185.753 86.125C185.19 86.125 184.706 85.9922 184.3 85.7266C183.894 85.4609 183.581 85.0951 183.362 84.6289C183.144 84.1628 183.034 83.6302 183.034 83.0312C183.034 82.4219 183.146 81.8841 183.37 81.418C183.597 80.9492 183.912 80.5833 184.315 80.3203C184.722 80.0547 185.196 79.9219 185.737 79.9219C186.159 79.9219 186.539 80 186.878 80.1562C187.216 80.3125 187.494 80.5312 187.71 80.8125C187.926 81.0937 188.06 81.4219 188.112 81.7969H187.19C187.12 81.5234 186.964 81.2812 186.722 81.0703C186.482 80.8568 186.159 80.75 185.753 80.75C185.394 80.75 185.078 80.8437 184.808 81.0312C184.539 81.2161 184.33 81.4779 184.179 81.8164C184.03 82.1523 183.956 82.5469 183.956 83C183.956 83.4635 184.029 83.8672 184.175 84.2109C184.323 84.5547 184.532 84.8216 184.8 85.0117C185.071 85.2018 185.388 85.2969 185.753 85.2969C185.993 85.2969 186.21 85.2552 186.405 85.1719C186.601 85.0885 186.766 84.9688 186.901 84.8125C187.037 84.6562 187.133 84.4687 187.19 84.25H188.112C188.06 84.6042 187.931 84.9232 187.726 85.207C187.522 85.4883 187.253 85.7122 186.917 85.8789C186.584 86.043 186.196 86.125 185.753 86.125ZM190.382 82.3906V86H189.46V78H190.382V80.9375H190.46C190.601 80.6276 190.812 80.3815 191.093 80.1992C191.377 80.0143 191.754 79.9219 192.226 79.9219C192.634 79.9219 192.993 80.0039 193.3 80.168C193.607 80.3294 193.845 80.5781 194.015 80.9141C194.187 81.2474 194.272 81.6719 194.272 82.1875V86H193.351V82.25C193.351 81.7734 193.227 81.4049 192.979 81.1445C192.735 80.8815 192.395 80.75 191.96 80.75C191.658 80.75 191.387 80.8138 191.147 80.9414C190.91 81.069 190.723 81.2552 190.585 81.5C190.45 81.7448 190.382 82.0417 190.382 82.3906ZM203.553 80C203.506 79.6042 203.316 79.2969 202.982 79.0781C202.649 78.8594 202.24 78.75 201.756 78.75C201.402 78.75 201.092 78.8073 200.826 78.9219C200.563 79.0365 200.357 79.194 200.209 79.3945C200.063 79.5951 199.99 79.8229 199.99 80.0781C199.99 80.2917 200.041 80.4753 200.143 80.6289C200.247 80.7799 200.38 80.9062 200.541 81.0078C200.702 81.1068 200.872 81.1888 201.049 81.2539C201.226 81.3164 201.389 81.3672 201.537 81.4062L202.35 81.625C202.558 81.6797 202.79 81.7552 203.045 81.8516C203.303 81.9479 203.549 82.0794 203.783 82.2461C204.02 82.4102 204.215 82.6211 204.369 82.8789C204.523 83.1367 204.6 83.4531 204.6 83.8281C204.6 84.2604 204.486 84.651 204.26 85C204.036 85.349 203.708 85.6263 203.275 85.832C202.846 86.0378 202.324 86.1406 201.709 86.1406C201.136 86.1406 200.64 86.0482 200.221 85.8633C199.804 85.6784 199.476 85.4206 199.236 85.0898C198.999 84.7591 198.865 84.375 198.834 83.9375H199.834C199.86 84.2396 199.962 84.4896 200.139 84.6875C200.318 84.8828 200.545 85.0286 200.818 85.125C201.094 85.2187 201.391 85.2656 201.709 85.2656C202.079 85.2656 202.411 85.2057 202.705 85.0859C202.999 84.9635 203.232 84.7943 203.404 84.5781C203.576 84.3594 203.662 84.1042 203.662 83.8125C203.662 83.5469 203.588 83.3307 203.439 83.1641C203.291 82.9974 203.096 82.862 202.854 82.7578C202.611 82.6536 202.35 82.5625 202.068 82.4844L201.084 82.2031C200.459 82.0234 199.964 81.7669 199.6 81.4336C199.235 81.1003 199.053 80.6641 199.053 80.125C199.053 79.6771 199.174 79.2865 199.416 78.9531C199.661 78.6172 199.989 78.3568 200.4 78.1719C200.814 77.9844 201.277 77.8906 201.787 77.8906C202.303 77.8906 202.761 77.9831 203.162 78.168C203.563 78.3503 203.881 78.6003 204.115 78.918C204.352 79.2357 204.477 79.5964 204.49 80H203.553ZM208.505 86.125C207.963 86.125 207.488 85.9961 207.079 85.7383C206.673 85.4805 206.355 85.1198 206.126 84.6562C205.899 84.1927 205.786 83.651 205.786 83.0312C205.786 82.4062 205.899 81.8607 206.126 81.3945C206.355 80.9284 206.673 80.5664 207.079 80.3086C207.488 80.0508 207.963 79.9219 208.505 79.9219C209.047 79.9219 209.521 80.0508 209.927 80.3086C210.336 80.5664 210.653 80.9284 210.88 81.3945C211.109 81.8607 211.224 82.4062 211.224 83.0312C211.224 83.651 211.109 84.1927 210.88 84.6562C210.653 85.1198 210.336 85.4805 209.927 85.7383C209.521 85.9961 209.047 86.125 208.505 86.125ZM208.505 85.2969C208.916 85.2969 209.255 85.1914 209.521 84.9805C209.786 84.7695 209.983 84.4922 210.11 84.1484C210.238 83.8047 210.302 83.4323 210.302 83.0312C210.302 82.6302 210.238 82.2565 210.11 81.9102C209.983 81.5638 209.786 81.2839 209.521 81.0703C209.255 80.8568 208.916 80.75 208.505 80.75C208.093 80.75 207.755 80.8568 207.489 81.0703C207.224 81.2839 207.027 81.5638 206.899 81.9102C206.772 82.2565 206.708 82.6302 206.708 83.0312C206.708 83.4323 206.772 83.8047 206.899 84.1484C207.027 84.4922 207.224 84.7695 207.489 84.9805C207.755 85.1914 208.093 85.2969 208.505 85.2969ZM213.553 78V86H212.631V78H213.553ZM219.022 83.5469V80H219.944V86H219.022V84.9844H218.96C218.819 85.2891 218.601 85.5482 218.304 85.7617C218.007 85.9727 217.632 86.0781 217.179 86.0781C216.804 86.0781 216.47 85.9961 216.179 85.832C215.887 85.6654 215.658 85.4154 215.491 85.082C215.325 84.7461 215.241 84.3229 215.241 83.8125V80H216.163V83.75C216.163 84.1875 216.285 84.5365 216.53 84.7969C216.778 85.0573 217.093 85.1875 217.476 85.1875C217.705 85.1875 217.938 85.1289 218.175 85.0117C218.414 84.8945 218.615 84.7148 218.776 84.4727C218.94 84.2305 219.022 83.9219 219.022 83.5469ZM224.242 80V80.7812H221.133V80H224.242ZM222.039 78.5625H222.961V84.2812C222.961 84.5417 222.999 84.737 223.074 84.8672C223.152 84.9948 223.251 85.0807 223.371 85.125C223.493 85.1667 223.622 85.1875 223.758 85.1875C223.859 85.1875 223.943 85.1823 224.008 85.1719C224.073 85.1589 224.125 85.1484 224.164 85.1406L224.352 85.9687C224.289 85.9922 224.202 86.0156 224.09 86.0391C223.978 86.0651 223.836 86.0781 223.664 86.0781C223.404 86.0781 223.148 86.0221 222.898 85.9102C222.651 85.7982 222.445 85.6276 222.281 85.3984C222.12 85.1693 222.039 84.8802 222.039 84.5312V78.5625ZM225.629 86V80H226.551V86H225.629ZM226.098 79C225.918 79 225.763 78.9388 225.633 78.8164C225.505 78.694 225.441 78.5469 225.441 78.375C225.441 78.2031 225.505 78.056 225.633 77.9336C225.763 77.8112 225.918 77.75 226.098 77.75C226.277 77.75 226.431 77.8112 226.559 77.9336C226.689 78.056 226.754 78.2031 226.754 78.375C226.754 78.5469 226.689 78.694 226.559 78.8164C226.431 78.9388 226.277 79 226.098 79ZM230.677 86.125C230.135 86.125 229.66 85.9961 229.251 85.7383C228.845 85.4805 228.527 85.1198 228.298 84.6562C228.071 84.1927 227.958 83.651 227.958 83.0312C227.958 82.4062 228.071 81.8607 228.298 81.3945C228.527 80.9284 228.845 80.5664 229.251 80.3086C229.66 80.0508 230.135 79.9219 230.677 79.9219C231.218 79.9219 231.692 80.0508 232.099 80.3086C232.507 80.5664 232.825 80.9284 233.052 81.3945C233.281 81.8607 233.396 82.4062 233.396 83.0312C233.396 83.651 233.281 84.1927 233.052 84.6562C232.825 85.1198 232.507 85.4805 232.099 85.7383C231.692 85.9961 231.218 86.125 230.677 86.125ZM230.677 85.2969C231.088 85.2969 231.427 85.1914 231.692 84.9805C231.958 84.7695 232.155 84.4922 232.282 84.1484C232.41 83.8047 232.474 83.4323 232.474 83.0312C232.474 82.6302 232.41 82.2565 232.282 81.9102C232.155 81.5638 231.958 81.2839 231.692 81.0703C231.427 80.8568 231.088 80.75 230.677 80.75C230.265 80.75 229.927 80.8568 229.661 81.0703C229.396 81.2839 229.199 81.5638 229.071 81.9102C228.944 82.2565 228.88 82.6302 228.88 83.0312C228.88 83.4323 228.944 83.8047 229.071 84.1484C229.199 84.4922 229.396 84.7695 229.661 84.9805C229.927 85.1914 230.265 85.2969 230.677 85.2969ZM235.725 82.3906V86H234.803V80H235.693V80.9375H235.771C235.912 80.6328 236.126 80.388 236.412 80.2031C236.699 80.0156 237.068 79.9219 237.521 79.9219C237.928 79.9219 238.283 80.0052 238.588 80.1719C238.893 80.3359 239.13 80.5859 239.299 80.9219C239.468 81.2552 239.553 81.6771 239.553 82.1875V86H238.631V82.25C238.631 81.7786 238.508 81.4115 238.264 81.1484C238.019 80.8828 237.683 80.75 237.256 80.75C236.962 80.75 236.699 80.8138 236.467 80.9414C236.238 81.069 236.057 81.2552 235.924 81.5C235.791 81.7448 235.725 82.0417 235.725 82.3906ZM245.487 81.3437L244.659 81.5781C244.607 81.4401 244.53 81.306 244.429 81.1758C244.33 81.043 244.194 80.9336 244.022 80.8477C243.851 80.7617 243.631 80.7187 243.362 80.7187C242.995 80.7187 242.689 80.8034 242.444 80.9727C242.202 81.1393 242.081 81.3516 242.081 81.6094C242.081 81.8385 242.164 82.0195 242.331 82.1523C242.498 82.2852 242.758 82.3958 243.112 82.4844L244.003 82.7031C244.539 82.8333 244.939 83.0326 245.202 83.3008C245.465 83.5664 245.597 83.9089 245.597 84.3281C245.597 84.6719 245.498 84.9792 245.3 85.25C245.104 85.5208 244.831 85.7344 244.479 85.8906C244.128 86.0469 243.719 86.125 243.253 86.125C242.641 86.125 242.134 85.9922 241.733 85.7266C241.332 85.4609 241.078 85.0729 240.972 84.5625L241.847 84.3437C241.93 84.6667 242.088 84.9089 242.319 85.0703C242.554 85.2318 242.86 85.3125 243.237 85.3125C243.667 85.3125 244.008 85.2214 244.261 85.0391C244.516 84.8542 244.644 84.6328 244.644 84.375C244.644 84.1667 244.571 83.9922 244.425 83.8516C244.279 83.7083 244.055 83.6016 243.753 83.5312L242.753 83.2969C242.203 83.1667 241.8 82.9648 241.542 82.6914C241.287 82.4154 241.159 82.0703 241.159 81.6562C241.159 81.3177 241.254 81.0182 241.444 80.7578C241.637 80.4974 241.899 80.293 242.229 80.1445C242.563 79.9961 242.94 79.9219 243.362 79.9219C243.956 79.9219 244.422 80.0521 244.761 80.3125C245.102 80.5729 245.344 80.9167 245.487 81.3437Z" fill="black" fill-opacity="0.4"/>
</g>
<defs>
<clipPath id="clip0_30_105">
<rect width="360" height="104" fill="white"/>
</clipPath>
</defs>
</svg>
