<svg width="1200" height="630" viewBox="0 0 1200 630" fill="none" xmlns="http://www.w3.org/2000/svg">
<g clip-path="url(#clip0_30_156)">
<path d="M1200 0H0V630H1200V0Z" fill="#0F172A"/>
<path opacity="0.25" d="M1050 420C1215.69 420 1350 285.685 1350 120C1350 -45.6854 1215.69 -180 1050 -180C884.315 -180 750 -45.6854 750 120C750 285.685 884.315 420 1050 420Z" fill="#1E3A8A"/>
<path opacity="0.15" d="M150 770C288.071 770 400 658.071 400 520C400 381.929 288.071 270 150 270C11.9288 270 -100 381.929 -100 520C-100 658.071 11.9288 770 150 770Z" fill="#1E3A8A"/>
<path d="M413 308H399C395.134 308 392 311.134 392 315V391C392 394.866 395.134 398 399 398H413C416.866 398 420 394.866 420 391V315C420 311.134 416.866 308 413 308Z" fill="#1E3A8A"/>
<path d="M453 278H439C435.134 278 432 281.134 432 285V391C432 394.866 435.134 398 439 398H453C456.866 398 460 394.866 460 391V285C460 281.134 456.866 278 453 278Z" fill="#2563EB"/>
<path d="M493 238H479C475.134 238 472 241.134 472 245V391C472 394.866 475.134 398 479 398H493C496.866 398 500 394.866 500 391V245C500 241.134 496.866 238 493 238Z" fill="#60A5FA"/>
<path d="M392 396C418.667 365.333 445.333 330 472 290L512 262" stroke="#93C5FD" stroke-width="6" stroke-linecap="round"/>
<path d="M512 272C517.523 272 522 267.523 522 262C522 256.477 517.523 252 512 252C506.477 252 502 256.477 502 262C502 267.523 506.477 272 512 272Z" fill="#BFDBFE"/>
<path d="M547 204V426" stroke="white" stroke-opacity="0.12"/>
<path d="M578.341 284V231.636H609.739V237.261H584.682V254.955H607.386V260.58H584.682V284H578.341ZM619.781 284V244.727H625.815V284H619.781ZM622.849 238.182C621.673 238.182 620.658 237.781 619.806 236.98C618.971 236.179 618.553 235.216 618.553 234.091C618.553 232.966 618.971 232.003 619.806 231.202C620.658 230.401 621.673 230 622.849 230C624.025 230 625.031 230.401 625.866 231.202C626.718 232.003 627.144 232.966 627.144 234.091C627.144 235.216 626.718 236.179 625.866 236.98C625.031 237.781 624.025 238.182 622.849 238.182ZM642.901 260.375V284H636.866V244.727H642.696V250.864H643.207C644.128 248.869 645.526 247.267 647.401 246.057C649.276 244.83 651.696 244.216 654.662 244.216C657.321 244.216 659.648 244.761 661.642 245.852C663.636 246.926 665.188 248.562 666.295 250.761C667.403 252.943 667.957 255.705 667.957 259.045V284H661.923V259.455C661.923 256.369 661.122 253.966 659.52 252.244C657.918 250.506 655.719 249.636 652.923 249.636C650.997 249.636 649.276 250.054 647.759 250.889C646.259 251.724 645.074 252.943 644.205 254.545C643.335 256.148 642.901 258.091 642.901 260.375ZM690.54 284.92C688.052 284.92 685.793 284.452 683.765 283.514C681.737 282.56 680.126 281.188 678.933 279.398C677.739 277.591 677.143 275.409 677.143 272.852C677.143 270.602 677.586 268.778 678.472 267.381C679.359 265.966 680.543 264.858 682.026 264.057C683.509 263.256 685.146 262.659 686.935 262.267C688.742 261.858 690.558 261.534 692.381 261.295C694.768 260.989 696.702 260.759 698.185 260.605C699.685 260.435 700.776 260.153 701.458 259.761C702.157 259.369 702.506 258.687 702.506 257.716V257.511C702.506 254.989 701.816 253.028 700.435 251.631C699.072 250.233 697.001 249.534 694.222 249.534C691.342 249.534 689.083 250.165 687.447 251.426C685.81 252.687 684.66 254.034 683.995 255.466L678.268 253.42C679.29 251.034 680.654 249.176 682.359 247.847C684.08 246.5 685.955 245.562 687.984 245.034C690.029 244.489 692.04 244.216 694.018 244.216C695.279 244.216 696.728 244.369 698.364 244.676C700.018 244.966 701.612 245.571 703.146 246.491C704.697 247.412 705.984 248.801 707.006 250.659C708.029 252.517 708.54 255.006 708.54 258.125V284H702.506V278.682H702.2C701.79 279.534 701.109 280.446 700.154 281.418C699.2 282.389 697.93 283.216 696.344 283.898C694.759 284.58 692.825 284.92 690.54 284.92ZM691.461 279.5C693.847 279.5 695.859 279.031 697.495 278.094C699.148 277.156 700.393 275.946 701.228 274.463C702.08 272.98 702.506 271.42 702.506 269.784V264.261C702.251 264.568 701.688 264.849 700.819 265.105C699.967 265.344 698.978 265.557 697.853 265.744C696.745 265.915 695.663 266.068 694.606 266.205C693.566 266.324 692.722 266.426 692.075 266.511C690.506 266.716 689.04 267.048 687.677 267.509C686.33 267.952 685.239 268.625 684.404 269.528C683.586 270.415 683.177 271.625 683.177 273.159C683.177 275.256 683.952 276.841 685.504 277.915C687.072 278.972 689.058 279.5 691.461 279.5ZM725.588 260.375V284H719.554V244.727H725.384V250.864H725.895C726.815 248.869 728.213 247.267 730.088 246.057C731.963 244.83 734.384 244.216 737.349 244.216C740.009 244.216 742.335 244.761 744.33 245.852C746.324 246.926 747.875 248.562 748.983 250.761C750.091 252.943 750.645 255.705 750.645 259.045V284H744.611V259.455C744.611 256.369 743.81 253.966 742.207 252.244C740.605 250.506 738.406 249.636 735.611 249.636C733.685 249.636 731.963 250.054 730.446 250.889C728.946 251.724 727.761 252.943 726.892 254.545C726.023 256.148 725.588 258.091 725.588 260.375ZM777.626 284.818C773.944 284.818 770.773 283.949 768.114 282.21C765.455 280.472 763.41 278.077 761.978 275.026C760.546 271.974 759.83 268.489 759.83 264.568C759.83 260.58 760.563 257.06 762.029 254.009C763.512 250.94 765.575 248.545 768.217 246.824C770.876 245.085 773.978 244.216 777.523 244.216C780.285 244.216 782.773 244.727 784.989 245.75C787.205 246.773 789.021 248.205 790.435 250.045C791.85 251.886 792.728 254.034 793.069 256.489H787.035C786.575 254.699 785.552 253.114 783.967 251.733C782.398 250.335 780.285 249.636 777.626 249.636C775.273 249.636 773.211 250.25 771.438 251.477C769.683 252.687 768.31 254.401 767.322 256.616C766.35 258.815 765.864 261.398 765.864 264.364C765.864 267.398 766.342 270.04 767.296 272.29C768.268 274.54 769.631 276.287 771.387 277.531C773.16 278.776 775.239 279.398 777.626 279.398C779.194 279.398 780.617 279.125 781.896 278.58C783.174 278.034 784.256 277.25 785.143 276.227C786.029 275.205 786.66 273.977 787.035 272.545H793.069C792.728 274.864 791.884 276.952 790.538 278.81C789.208 280.651 787.444 282.116 785.245 283.207C783.063 284.281 780.523 284.818 777.626 284.818ZM818.356 284.818C814.572 284.818 811.308 283.983 808.563 282.312C805.836 280.625 803.731 278.273 802.248 275.256C800.782 272.222 800.049 268.693 800.049 264.67C800.049 260.648 800.782 257.102 802.248 254.034C803.731 250.949 805.793 248.545 808.435 246.824C811.094 245.085 814.197 244.216 817.742 244.216C819.788 244.216 821.808 244.557 823.802 245.239C825.796 245.92 827.612 247.028 829.248 248.562C830.884 250.08 832.188 252.091 833.16 254.597C834.131 257.102 834.617 260.187 834.617 263.852V266.409H804.344V261.193H828.481C828.481 258.977 828.038 257 827.151 255.261C826.282 253.523 825.038 252.151 823.418 251.145C821.816 250.139 819.924 249.636 817.742 249.636C815.339 249.636 813.259 250.233 811.504 251.426C809.765 252.602 808.427 254.136 807.489 256.028C806.552 257.92 806.083 259.949 806.083 262.114V265.591C806.083 268.557 806.594 271.071 807.617 273.134C808.657 275.179 810.097 276.739 811.938 277.812C813.779 278.869 815.918 279.398 818.356 279.398C819.941 279.398 821.373 279.176 822.651 278.733C823.947 278.273 825.063 277.591 826.001 276.688C826.938 275.767 827.663 274.625 828.174 273.261L834.004 274.898C833.39 276.875 832.359 278.614 830.91 280.114C829.461 281.597 827.671 282.756 825.54 283.591C823.41 284.409 821.015 284.818 818.356 284.818Z" fill="#60A5FA"/>
<path d="M620.477 324H614.136C613.761 322.176 613.105 320.574 612.168 319.193C611.247 317.812 610.122 316.653 608.793 315.716C607.48 314.761 606.023 314.045 604.42 313.568C602.818 313.091 601.148 312.852 599.409 312.852C596.239 312.852 593.366 313.653 590.793 315.256C588.236 316.858 586.199 319.219 584.682 322.338C583.182 325.457 582.432 329.284 582.432 333.818C582.432 338.352 583.182 342.179 584.682 345.298C586.199 348.418 588.236 350.778 590.793 352.381C593.366 353.983 596.239 354.784 599.409 354.784C601.148 354.784 602.818 354.545 604.42 354.068C606.023 353.591 607.48 352.884 608.793 351.946C610.122 350.991 611.247 349.824 612.168 348.443C613.105 347.045 613.761 345.443 614.136 343.636H620.477C620 346.312 619.131 348.707 617.869 350.821C616.608 352.935 615.04 354.733 613.165 356.216C611.29 357.682 609.185 358.798 606.849 359.565C604.531 360.332 602.051 360.716 599.409 360.716C594.943 360.716 590.972 359.625 587.494 357.443C584.017 355.261 581.281 352.159 579.287 348.136C577.293 344.114 576.295 339.341 576.295 333.818C576.295 328.295 577.293 323.523 579.287 319.5C581.281 315.477 584.017 312.375 587.494 310.193C590.972 308.011 594.943 306.92 599.409 306.92C602.051 306.92 604.531 307.304 606.849 308.071C609.185 308.838 611.29 309.963 613.165 311.446C615.04 312.912 616.608 314.702 617.869 316.815C619.131 318.912 620 321.307 620.477 324ZM645.86 360.818C642.315 360.818 639.204 359.974 636.528 358.287C633.869 356.599 631.789 354.239 630.289 351.205C628.806 348.17 628.065 344.625 628.065 340.568C628.065 336.477 628.806 332.906 630.289 329.855C631.789 326.804 633.869 324.435 636.528 322.747C639.204 321.06 642.315 320.216 645.86 320.216C649.406 320.216 652.508 321.06 655.167 322.747C657.843 324.435 659.923 326.804 661.406 329.855C662.906 332.906 663.656 336.477 663.656 340.568C663.656 344.625 662.906 348.17 661.406 351.205C659.923 354.239 657.843 356.599 655.167 358.287C652.508 359.974 649.406 360.818 645.86 360.818ZM645.86 355.398C648.553 355.398 650.769 354.707 652.508 353.327C654.246 351.946 655.533 350.131 656.369 347.881C657.204 345.631 657.621 343.193 657.621 340.568C657.621 337.943 657.204 335.497 656.369 333.23C655.533 330.963 654.246 329.131 652.508 327.733C650.769 326.335 648.553 325.636 645.86 325.636C643.167 325.636 640.951 326.335 639.212 327.733C637.474 329.131 636.187 330.963 635.352 333.23C634.516 335.497 634.099 337.943 634.099 340.568C634.099 343.193 634.516 345.631 635.352 347.881C636.187 350.131 637.474 351.946 639.212 353.327C640.951 354.707 643.167 355.398 645.86 355.398ZM678.901 336.375V360H672.866V320.727H678.696V326.864H679.207C680.128 324.869 681.526 323.267 683.401 322.057C685.276 320.83 687.696 320.216 690.662 320.216C693.321 320.216 695.648 320.761 697.642 321.852C699.636 322.926 701.188 324.562 702.295 326.761C703.403 328.943 703.957 331.705 703.957 335.045V360H697.923V335.455C697.923 332.369 697.122 329.966 695.52 328.244C693.918 326.506 691.719 325.636 688.923 325.636C686.997 325.636 685.276 326.054 683.759 326.889C682.259 327.724 681.074 328.943 680.205 330.545C679.335 332.148 678.901 334.091 678.901 336.375ZM732.063 320.727V325.841H711.711V320.727H732.063ZM717.643 311.318H723.677V348.75C723.677 350.455 723.924 351.733 724.418 352.585C724.93 353.42 725.577 353.983 726.362 354.273C727.163 354.545 728.006 354.682 728.893 354.682C729.558 354.682 730.103 354.648 730.529 354.58C730.955 354.494 731.296 354.426 731.552 354.375L732.779 359.795C732.37 359.949 731.799 360.102 731.066 360.256C730.333 360.426 729.404 360.511 728.279 360.511C726.575 360.511 724.904 360.145 723.268 359.412C721.648 358.679 720.302 357.562 719.228 356.062C718.171 354.562 717.643 352.67 717.643 350.386V311.318ZM741.14 360V320.727H746.969V326.659H747.379C748.094 324.716 749.39 323.139 751.265 321.929C753.14 320.719 755.254 320.114 757.606 320.114C758.049 320.114 758.603 320.122 759.268 320.139C759.933 320.156 760.435 320.182 760.776 320.216V326.352C760.572 326.301 760.103 326.224 759.37 326.122C758.654 326.003 757.896 325.943 757.094 325.943C755.185 325.943 753.481 326.344 751.981 327.145C750.498 327.929 749.322 329.02 748.452 330.418C747.6 331.798 747.174 333.375 747.174 335.148V360H741.14ZM782.688 360.818C779.143 360.818 776.032 359.974 773.356 358.287C770.697 356.599 768.617 354.239 767.117 351.205C765.634 348.17 764.893 344.625 764.893 340.568C764.893 336.477 765.634 332.906 767.117 329.855C768.617 326.804 770.697 324.435 773.356 322.747C776.032 321.06 779.143 320.216 782.688 320.216C786.234 320.216 789.336 321.06 791.995 322.747C794.671 324.435 796.751 326.804 798.234 329.855C799.734 332.906 800.484 336.477 800.484 340.568C800.484 344.625 799.734 348.17 798.234 351.205C796.751 354.239 794.671 356.599 791.995 358.287C789.336 359.974 786.234 360.818 782.688 360.818ZM782.688 355.398C785.381 355.398 787.597 354.707 789.336 353.327C791.075 351.946 792.362 350.131 793.197 347.881C794.032 345.631 794.45 343.193 794.45 340.568C794.45 337.943 794.032 335.497 793.197 333.23C792.362 330.963 791.075 329.131 789.336 327.733C787.597 326.335 785.381 325.636 782.688 325.636C779.995 325.636 777.779 326.335 776.04 327.733C774.302 329.131 773.015 330.963 772.18 333.23C771.344 335.497 770.927 337.943 770.927 340.568C770.927 343.193 771.344 345.631 772.18 347.881C773.015 350.131 774.302 351.946 776.04 353.327C777.779 354.707 779.995 355.398 782.688 355.398ZM815.729 307.636V360H809.695V307.636H815.729Z" fill="white"/>
<path d="M573.938 402V386H575.781V391.906H575.938C576.073 391.698 576.26 391.432 576.5 391.109C576.745 390.781 577.094 390.49 577.547 390.234C578.005 389.974 578.625 389.844 579.406 389.844C580.417 389.844 581.307 390.096 582.078 390.602C582.849 391.107 583.451 391.823 583.883 392.75C584.315 393.677 584.531 394.771 584.531 396.031C584.531 397.302 584.315 398.404 583.883 399.336C583.451 400.263 582.852 400.982 582.086 401.492C581.32 401.997 580.438 402.25 579.438 402.25C578.667 402.25 578.049 402.122 577.586 401.867C577.122 401.607 576.766 401.312 576.516 400.984C576.266 400.651 576.073 400.375 575.938 400.156H575.719V402H573.938ZM575.75 396C575.75 396.906 575.883 397.706 576.148 398.398C576.414 399.086 576.802 399.625 577.313 400.016C577.823 400.401 578.448 400.594 579.188 400.594C579.958 400.594 580.602 400.391 581.117 399.984C581.638 399.573 582.029 399.021 582.289 398.328C582.555 397.63 582.688 396.854 582.688 396C582.688 395.156 582.557 394.396 582.297 393.719C582.042 393.036 581.654 392.497 581.133 392.102C580.617 391.701 579.969 391.5 579.188 391.5C578.438 391.5 577.807 391.69 577.297 392.07C576.786 392.445 576.401 392.971 576.141 393.648C575.88 394.32 575.75 395.104 575.75 396ZM588.109 406.5C587.797 406.5 587.518 406.474 587.273 406.422C587.029 406.375 586.859 406.328 586.766 406.281L587.234 404.656C587.682 404.771 588.078 404.813 588.422 404.781C588.766 404.75 589.07 404.596 589.336 404.32C589.607 404.049 589.854 403.609 590.078 403L590.422 402.063L585.984 390H587.984L591.297 399.562H591.422L594.734 390H596.734L591.641 403.75C591.411 404.37 591.128 404.883 590.789 405.289C590.451 405.701 590.057 406.005 589.609 406.203C589.167 406.401 588.667 406.5 588.109 406.5ZM605.605 386H607.918L613.355 399.281H613.543L618.98 386H621.293V402H619.48V389.844H619.324L614.324 402H612.574L607.574 389.844H607.418V402H605.605V386ZM629.959 402.25C628.803 402.25 627.805 401.995 626.967 401.484C626.133 400.969 625.49 400.25 625.037 399.328C624.589 398.401 624.365 397.323 624.365 396.094C624.365 394.865 624.589 393.781 625.037 392.844C625.49 391.901 626.12 391.167 626.928 390.641C627.74 390.109 628.688 389.844 629.771 389.844C630.396 389.844 631.014 389.948 631.623 390.156C632.232 390.365 632.787 390.703 633.287 391.172C633.787 391.635 634.186 392.25 634.482 393.016C634.779 393.781 634.928 394.724 634.928 395.844V396.625H625.678V395.031H633.053C633.053 394.354 632.917 393.75 632.646 393.219C632.381 392.687 632.001 392.268 631.506 391.961C631.016 391.654 630.438 391.5 629.771 391.5C629.037 391.5 628.402 391.682 627.865 392.047C627.334 392.406 626.925 392.875 626.639 393.453C626.352 394.031 626.209 394.651 626.209 395.312V396.375C626.209 397.281 626.365 398.049 626.678 398.68C626.995 399.305 627.436 399.781 627.998 400.109C628.561 400.432 629.214 400.594 629.959 400.594C630.443 400.594 630.881 400.526 631.271 400.391C631.667 400.25 632.008 400.042 632.295 399.766C632.581 399.484 632.803 399.135 632.959 398.719L634.74 399.219C634.553 399.823 634.238 400.354 633.795 400.812C633.352 401.266 632.805 401.62 632.154 401.875C631.503 402.125 630.771 402.25 629.959 402.25ZM639.576 394.781V402H637.732V390H639.514V391.875H639.67C639.951 391.266 640.378 390.776 640.951 390.406C641.524 390.031 642.264 389.844 643.17 389.844C643.982 389.844 644.693 390.01 645.303 390.344C645.912 390.672 646.386 391.172 646.725 391.844C647.063 392.51 647.232 393.354 647.232 394.375V402H645.389V394.5C645.389 393.557 645.144 392.823 644.654 392.297C644.165 391.766 643.493 391.5 642.639 391.5C642.05 391.5 641.524 391.628 641.061 391.883C640.602 392.138 640.24 392.51 639.975 393C639.709 393.49 639.576 394.083 639.576 394.781ZM655.633 402.25C654.477 402.25 653.479 401.995 652.641 401.484C651.807 400.969 651.164 400.25 650.711 399.328C650.263 398.401 650.039 397.323 650.039 396.094C650.039 394.865 650.263 393.781 650.711 392.844C651.164 391.901 651.794 391.167 652.602 390.641C653.414 390.109 654.362 389.844 655.445 389.844C656.07 389.844 656.688 389.948 657.297 390.156C657.906 390.365 658.461 390.703 658.961 391.172C659.461 391.635 659.859 392.25 660.156 393.016C660.453 393.781 660.602 394.724 660.602 395.844V396.625H651.352V395.031H658.727C658.727 394.354 658.591 393.75 658.32 393.219C658.055 392.687 657.674 392.268 657.18 391.961C656.69 391.654 656.112 391.5 655.445 391.5C654.711 391.5 654.076 391.682 653.539 392.047C653.008 392.406 652.599 392.875 652.313 393.453C652.026 394.031 651.883 394.651 651.883 395.312V396.375C651.883 397.281 652.039 398.049 652.352 398.68C652.669 399.305 653.109 399.781 653.672 400.109C654.234 400.432 654.888 400.594 655.633 400.594C656.117 400.594 656.555 400.526 656.945 400.391C657.341 400.25 657.682 400.042 657.969 399.766C658.255 399.484 658.477 399.135 658.633 398.719L660.414 399.219C660.227 399.823 659.911 400.354 659.469 400.812C659.026 401.266 658.479 401.62 657.828 401.875C657.177 402.125 656.445 402.25 655.633 402.25ZM663.063 402V400.594L669.875 391.844V391.719H663.281V390H672.25V391.469L665.625 400.156V400.281H672.469V402H663.063ZM679.996 402.25C678.84 402.25 677.842 401.995 677.004 401.484C676.171 400.969 675.527 400.25 675.074 399.328C674.626 398.401 674.402 397.323 674.402 396.094C674.402 394.865 674.626 393.781 675.074 392.844C675.527 391.901 676.158 391.167 676.965 390.641C677.777 390.109 678.725 389.844 679.809 389.844C680.434 389.844 681.051 389.948 681.66 390.156C682.27 390.365 682.824 390.703 683.324 391.172C683.824 391.635 684.223 392.25 684.52 393.016C684.816 393.781 684.965 394.724 684.965 395.844V396.625H675.715V395.031H683.09C683.09 394.354 682.954 393.75 682.684 393.219C682.418 392.687 682.038 392.268 681.543 391.961C681.053 391.654 680.475 391.5 679.809 391.5C679.074 391.5 678.439 391.682 677.902 392.047C677.371 392.406 676.962 392.875 676.676 393.453C676.389 394.031 676.246 394.651 676.246 395.312V396.375C676.246 397.281 676.402 398.049 676.715 398.68C677.033 399.305 677.473 399.781 678.035 400.109C678.598 400.432 679.251 400.594 679.996 400.594C680.48 400.594 680.918 400.526 681.309 400.391C681.704 400.25 682.046 400.042 682.332 399.766C682.618 399.484 682.84 399.135 682.996 398.719L684.777 399.219C684.59 399.823 684.275 400.354 683.832 400.812C683.389 401.266 682.842 401.62 682.191 401.875C681.54 402.125 680.809 402.25 679.996 402.25ZM696.27 392.687L694.613 393.156C694.509 392.88 694.355 392.612 694.152 392.352C693.954 392.086 693.684 391.867 693.34 391.695C692.996 391.523 692.556 391.437 692.02 391.437C691.285 391.437 690.673 391.607 690.184 391.945C689.699 392.279 689.457 392.703 689.457 393.219C689.457 393.677 689.624 394.039 689.957 394.305C690.29 394.57 690.811 394.792 691.52 394.969L693.301 395.406C694.374 395.667 695.173 396.065 695.699 396.602C696.225 397.133 696.488 397.818 696.488 398.656C696.488 399.344 696.29 399.958 695.895 400.5C695.504 401.042 694.957 401.469 694.254 401.781C693.551 402.094 692.733 402.25 691.801 402.25C690.577 402.25 689.564 401.984 688.762 401.453C687.96 400.922 687.452 400.146 687.238 399.125L688.988 398.687C689.155 399.333 689.47 399.818 689.934 400.141C690.402 400.464 691.014 400.625 691.77 400.625C692.629 400.625 693.311 400.443 693.816 400.078C694.327 399.708 694.582 399.266 694.582 398.75C694.582 398.333 694.436 397.984 694.145 397.703C693.853 397.417 693.405 397.203 692.801 397.062L690.801 396.594C689.702 396.333 688.895 395.93 688.379 395.383C687.868 394.831 687.613 394.141 687.613 393.312C687.613 392.635 687.803 392.036 688.184 391.516C688.569 390.995 689.092 390.586 689.754 390.289C690.421 389.992 691.176 389.844 692.02 389.844C693.207 389.844 694.139 390.104 694.816 390.625C695.499 391.146 695.983 391.833 696.27 392.687ZM704.826 387.719V386H716.826V387.719H711.795V402H709.857V387.719H704.826ZM722.857 402.25C721.701 402.25 720.704 401.995 719.865 401.484C719.032 400.969 718.389 400.25 717.936 399.328C717.488 398.401 717.264 397.323 717.264 396.094C717.264 394.865 717.488 393.781 717.936 392.844C718.389 391.901 719.019 391.167 719.826 390.641C720.639 390.109 721.587 389.844 722.67 389.844C723.295 389.844 723.912 389.948 724.521 390.156C725.131 390.365 725.686 390.703 726.186 391.172C726.686 391.635 727.084 392.25 727.381 393.016C727.678 393.781 727.826 394.724 727.826 395.844V396.625H718.576V395.031H725.951C725.951 394.354 725.816 393.75 725.545 393.219C725.279 392.687 724.899 392.268 724.404 391.961C723.915 391.654 723.337 391.5 722.67 391.5C721.936 391.5 721.3 391.682 720.764 392.047C720.232 392.406 719.824 392.875 719.537 393.453C719.251 394.031 719.107 394.651 719.107 395.312V396.375C719.107 397.281 719.264 398.049 719.576 398.68C719.894 399.305 720.334 399.781 720.896 400.109C721.459 400.432 722.113 400.594 722.857 400.594C723.342 400.594 723.779 400.526 724.17 400.391C724.566 400.25 724.907 400.042 725.193 399.766C725.48 399.484 725.701 399.135 725.857 398.719L727.639 399.219C727.451 399.823 727.136 400.354 726.693 400.812C726.251 401.266 725.704 401.62 725.053 401.875C724.402 402.125 723.67 402.25 722.857 402.25ZM735.506 402.25C734.381 402.25 733.412 401.984 732.6 401.453C731.787 400.922 731.162 400.19 730.725 399.258C730.287 398.326 730.068 397.26 730.068 396.062C730.068 394.844 730.292 393.768 730.74 392.836C731.193 391.898 731.824 391.167 732.631 390.641C733.443 390.109 734.391 389.844 735.475 389.844C736.318 389.844 737.079 390 737.756 390.312C738.433 390.625 738.988 391.062 739.42 391.625C739.852 392.187 740.12 392.844 740.225 393.594H738.381C738.24 393.047 737.928 392.562 737.443 392.141C736.964 391.714 736.318 391.5 735.506 391.5C734.787 391.5 734.157 391.687 733.615 392.062C733.079 392.432 732.66 392.956 732.357 393.633C732.061 394.305 731.912 395.094 731.912 396C731.912 396.927 732.058 397.734 732.35 398.422C732.646 399.109 733.063 399.643 733.6 400.023C734.141 400.404 734.777 400.594 735.506 400.594C735.985 400.594 736.42 400.51 736.811 400.344C737.201 400.177 737.532 399.938 737.803 399.625C738.074 399.312 738.266 398.937 738.381 398.5H740.225C740.12 399.208 739.863 399.846 739.451 400.414C739.045 400.977 738.506 401.424 737.834 401.758C737.167 402.086 736.391 402.25 735.506 402.25ZM744.764 394.781V402H742.92V386H744.764V391.875H744.92C745.201 391.255 745.623 390.763 746.186 390.398C746.753 390.029 747.508 389.844 748.451 389.844C749.269 389.844 749.985 390.008 750.6 390.336C751.214 390.659 751.691 391.156 752.029 391.828C752.373 392.495 752.545 393.344 752.545 394.375V402H750.701V394.5C750.701 393.547 750.454 392.81 749.959 392.289C749.469 391.763 748.79 391.5 747.92 391.5C747.316 391.5 746.774 391.628 746.295 391.883C745.821 392.138 745.446 392.51 745.17 393C744.899 393.49 744.764 394.083 744.764 394.781ZM771.105 390C771.012 389.208 770.632 388.594 769.965 388.156C769.298 387.719 768.48 387.5 767.512 387.5C766.803 387.5 766.184 387.615 765.652 387.844C765.126 388.073 764.715 388.388 764.418 388.789C764.126 389.19 763.98 389.646 763.98 390.156C763.98 390.583 764.082 390.951 764.285 391.258C764.493 391.56 764.759 391.812 765.082 392.016C765.405 392.214 765.743 392.378 766.098 392.508C766.452 392.633 766.777 392.734 767.074 392.812L768.699 393.25C769.116 393.359 769.579 393.51 770.09 393.703C770.605 393.896 771.098 394.159 771.566 394.492C772.04 394.82 772.431 395.242 772.738 395.758C773.046 396.273 773.199 396.906 773.199 397.656C773.199 398.521 772.973 399.302 772.52 400C772.072 400.698 771.415 401.253 770.551 401.664C769.691 402.076 768.647 402.281 767.418 402.281C766.272 402.281 765.28 402.096 764.441 401.727C763.608 401.357 762.952 400.841 762.473 400.18C761.999 399.518 761.73 398.75 761.668 397.875H763.668C763.72 398.479 763.923 398.979 764.277 399.375C764.637 399.766 765.09 400.057 765.637 400.25C766.189 400.437 766.783 400.531 767.418 400.531C768.158 400.531 768.822 400.411 769.41 400.172C769.999 399.927 770.465 399.589 770.809 399.156C771.152 398.719 771.324 398.208 771.324 397.625C771.324 397.094 771.176 396.661 770.879 396.328C770.582 395.995 770.191 395.724 769.707 395.516C769.223 395.307 768.699 395.125 768.137 394.969L766.168 394.406C764.918 394.047 763.928 393.534 763.199 392.867C762.47 392.201 762.105 391.328 762.105 390.25C762.105 389.354 762.348 388.573 762.832 387.906C763.322 387.234 763.978 386.714 764.801 386.344C765.629 385.969 766.553 385.781 767.574 385.781C768.605 385.781 769.522 385.966 770.324 386.336C771.126 386.701 771.762 387.201 772.23 387.836C772.704 388.471 772.954 389.193 772.98 390H771.105ZM781.01 402.25C779.926 402.25 778.976 401.992 778.158 401.477C777.346 400.961 776.71 400.24 776.252 399.312C775.799 398.385 775.572 397.302 775.572 396.062C775.572 394.812 775.799 393.721 776.252 392.789C776.71 391.857 777.346 391.133 778.158 390.617C778.976 390.102 779.926 389.844 781.01 389.844C782.093 389.844 783.041 390.102 783.854 390.617C784.671 391.133 785.307 391.857 785.76 392.789C786.218 393.721 786.447 394.812 786.447 396.062C786.447 397.302 786.218 398.385 785.76 399.312C785.307 400.24 784.671 400.961 783.854 401.477C783.041 401.992 782.093 402.25 781.01 402.25ZM781.01 400.594C781.833 400.594 782.51 400.383 783.041 399.961C783.572 399.539 783.965 398.984 784.221 398.297C784.476 397.609 784.604 396.865 784.604 396.062C784.604 395.26 784.476 394.513 784.221 393.82C783.965 393.128 783.572 392.568 783.041 392.141C782.51 391.714 781.833 391.5 781.01 391.5C780.187 391.5 779.51 391.714 778.979 392.141C778.447 392.568 778.054 393.128 777.799 393.82C777.544 394.513 777.416 395.26 777.416 396.062C777.416 396.865 777.544 397.609 777.799 398.297C778.054 398.984 778.447 399.539 778.979 399.961C779.51 400.383 780.187 400.594 781.01 400.594ZM791.105 386V402H789.262V386H791.105ZM802.045 397.094V390H803.889V402H802.045V399.969H801.92C801.639 400.578 801.201 401.096 800.607 401.523C800.014 401.945 799.264 402.156 798.357 402.156C797.607 402.156 796.941 401.992 796.357 401.664C795.774 401.331 795.316 400.831 794.982 400.164C794.649 399.492 794.482 398.646 794.482 397.625V390H796.326V397.5C796.326 398.375 796.571 399.073 797.061 399.594C797.555 400.115 798.186 400.375 798.951 400.375C799.41 400.375 799.876 400.258 800.35 400.023C800.829 399.789 801.23 399.43 801.553 398.945C801.881 398.461 802.045 397.844 802.045 397.094ZM812.484 390V391.562H806.266V390H812.484ZM808.078 387.125H809.922V398.562C809.922 399.083 809.997 399.474 810.148 399.734C810.305 399.99 810.503 400.161 810.742 400.25C810.987 400.333 811.245 400.375 811.516 400.375C811.719 400.375 811.885 400.365 812.016 400.344C812.146 400.318 812.25 400.297 812.328 400.281L812.703 401.937C812.578 401.984 812.404 402.031 812.18 402.078C811.956 402.13 811.672 402.156 811.328 402.156C810.807 402.156 810.297 402.044 809.797 401.82C809.302 401.596 808.891 401.255 808.562 400.797C808.24 400.339 808.078 399.76 808.078 399.062V387.125ZM815.258 402V390H817.102V402H815.258ZM816.195 388C815.836 388 815.526 387.878 815.266 387.633C815.01 387.388 814.883 387.094 814.883 386.75C814.883 386.406 815.01 386.112 815.266 385.867C815.526 385.622 815.836 385.5 816.195 385.5C816.555 385.5 816.862 385.622 817.117 385.867C817.378 386.112 817.508 386.406 817.508 386.75C817.508 387.094 817.378 387.388 817.117 387.633C816.862 387.878 816.555 388 816.195 388ZM825.354 402.25C824.27 402.25 823.32 401.992 822.502 401.477C821.689 400.961 821.054 400.24 820.596 399.312C820.143 398.385 819.916 397.302 819.916 396.062C819.916 394.812 820.143 393.721 820.596 392.789C821.054 391.857 821.689 391.133 822.502 390.617C823.32 390.102 824.27 389.844 825.354 389.844C826.437 389.844 827.385 390.102 828.197 390.617C829.015 391.133 829.65 391.857 830.104 392.789C830.562 393.721 830.791 394.812 830.791 396.062C830.791 397.302 830.562 398.385 830.104 399.312C829.65 400.24 829.015 400.961 828.197 401.477C827.385 401.992 826.437 402.25 825.354 402.25ZM825.354 400.594C826.176 400.594 826.854 400.383 827.385 399.961C827.916 399.539 828.309 398.984 828.564 398.297C828.82 397.609 828.947 396.865 828.947 396.062C828.947 395.26 828.82 394.513 828.564 393.82C828.309 393.128 827.916 392.568 827.385 392.141C826.854 391.714 826.176 391.5 825.354 391.5C824.531 391.5 823.854 391.714 823.322 392.141C822.791 392.568 822.398 393.128 822.143 393.82C821.887 394.513 821.76 395.26 821.76 396.062C821.76 396.865 821.887 397.609 822.143 398.297C822.398 398.984 822.791 399.539 823.322 399.961C823.854 400.383 824.531 400.594 825.354 400.594ZM835.449 394.781V402H833.605V390H835.387V391.875H835.543C835.824 391.266 836.251 390.776 836.824 390.406C837.397 390.031 838.137 389.844 839.043 389.844C839.855 389.844 840.566 390.01 841.176 390.344C841.785 390.672 842.259 391.172 842.598 391.844C842.936 392.51 843.105 393.354 843.105 394.375V402H841.262V394.5C841.262 393.557 841.017 392.823 840.527 392.297C840.038 391.766 839.366 391.5 838.512 391.5C837.923 391.5 837.397 391.628 836.934 391.883C836.475 392.138 836.113 392.51 835.848 393C835.582 393.49 835.449 394.083 835.449 394.781ZM854.975 392.687L853.318 393.156C853.214 392.88 853.061 392.612 852.857 392.352C852.66 392.086 852.389 391.867 852.045 391.695C851.701 391.523 851.261 391.437 850.725 391.437C849.99 391.437 849.378 391.607 848.889 391.945C848.404 392.279 848.162 392.703 848.162 393.219C848.162 393.677 848.329 394.039 848.662 394.305C848.995 394.57 849.516 394.792 850.225 394.969L852.006 395.406C853.079 395.667 853.878 396.065 854.404 396.602C854.93 397.133 855.193 397.818 855.193 398.656C855.193 399.344 854.995 399.958 854.6 400.5C854.209 401.042 853.662 401.469 852.959 401.781C852.256 402.094 851.438 402.25 850.506 402.25C849.282 402.25 848.269 401.984 847.467 401.453C846.665 400.922 846.157 400.146 845.943 399.125L847.693 398.687C847.86 399.333 848.175 399.818 848.639 400.141C849.107 400.464 849.719 400.625 850.475 400.625C851.334 400.625 852.016 400.443 852.521 400.078C853.032 399.708 853.287 399.266 853.287 398.75C853.287 398.333 853.141 397.984 852.85 397.703C852.558 397.417 852.11 397.203 851.506 397.062L849.506 396.594C848.407 396.333 847.6 395.93 847.084 395.383C846.574 394.831 846.318 394.141 846.318 393.312C846.318 392.635 846.508 392.036 846.889 391.516C847.274 390.995 847.798 390.586 848.459 390.289C849.126 389.992 849.881 389.844 850.725 389.844C851.912 389.844 852.844 390.104 853.521 390.625C854.204 391.146 854.688 391.833 854.975 392.687Z" fill="white" fill-opacity="0.35"/>
<path d="M337.168 492.122V490.091H351.35V492.122H345.404V509H343.114V492.122H337.168ZM358.477 509.295C357.111 509.295 355.932 508.994 354.941 508.391C353.956 507.781 353.196 506.932 352.661 505.842C352.131 504.747 351.867 503.473 351.867 502.02C351.867 500.567 352.131 499.287 352.661 498.179C353.196 497.065 353.941 496.197 354.895 495.575C355.855 494.947 356.976 494.634 358.256 494.634C358.994 494.634 359.724 494.757 360.444 495.003C361.164 495.249 361.82 495.649 362.411 496.203C363.002 496.751 363.472 497.477 363.823 498.382C364.174 499.287 364.35 500.401 364.35 501.724V502.648H353.418V500.764H362.134C362.134 499.964 361.974 499.25 361.654 498.622C361.34 497.994 360.89 497.499 360.306 497.136C359.727 496.772 359.044 496.591 358.256 496.591C357.388 496.591 356.637 496.806 356.003 497.237C355.375 497.662 354.892 498.216 354.553 498.899C354.215 499.582 354.046 500.315 354.046 501.097V502.352C354.046 503.423 354.23 504.331 354.6 505.076C354.975 505.815 355.495 506.378 356.16 506.766C356.825 507.147 357.597 507.338 358.477 507.338C359.05 507.338 359.567 507.258 360.029 507.098C360.496 506.932 360.9 506.686 361.238 506.359C361.577 506.027 361.838 505.615 362.023 505.122L364.128 505.713C363.906 506.427 363.534 507.055 363.011 507.597C362.488 508.132 361.841 508.551 361.072 508.852C360.302 509.148 359.438 509.295 358.477 509.295ZM369.843 500.469V509H367.664V494.818H369.769V497.034H369.954C370.286 496.314 370.791 495.735 371.468 495.298C372.145 494.855 373.019 494.634 374.09 494.634C375.051 494.634 375.891 494.83 376.611 495.224C377.331 495.612 377.891 496.203 378.291 496.997C378.691 497.785 378.892 498.782 378.892 499.989V509H376.713V500.136C376.713 499.022 376.423 498.154 375.845 497.533C375.266 496.905 374.472 496.591 373.463 496.591C372.767 496.591 372.145 496.742 371.597 497.043C371.056 497.345 370.628 497.785 370.314 498.364C370 498.942 369.843 499.644 369.843 500.469ZM385.052 500.469V509H382.873V490.091H385.052V497.034H385.237C385.569 496.302 386.068 495.72 386.733 495.289C387.404 494.852 388.296 494.634 389.41 494.634C390.377 494.634 391.223 494.827 391.949 495.215C392.676 495.597 393.239 496.185 393.639 496.979C394.045 497.767 394.248 498.77 394.248 499.989V509H392.069V500.136C392.069 499.01 391.777 498.139 391.192 497.523C390.614 496.902 389.81 496.591 388.782 496.591C388.068 496.591 387.428 496.742 386.862 497.043C386.302 497.345 385.859 497.785 385.532 498.364C385.212 498.942 385.052 499.644 385.052 500.469ZM402.408 509.332C401.509 509.332 400.694 509.163 399.961 508.825C399.229 508.48 398.647 507.984 398.216 507.338C397.785 506.686 397.57 505.898 397.57 504.974C397.57 504.162 397.73 503.503 398.05 502.999C398.37 502.488 398.798 502.088 399.333 501.798C399.869 501.509 400.46 501.294 401.106 501.152C401.758 501.004 402.414 500.887 403.073 500.801C403.934 500.69 404.633 500.607 405.169 500.552C405.71 500.49 406.104 500.389 406.35 500.247C406.603 500.106 406.729 499.859 406.729 499.509V499.435C406.729 498.524 406.48 497.816 405.981 497.311C405.489 496.806 404.741 496.554 403.737 496.554C402.697 496.554 401.882 496.782 401.291 497.237C400.7 497.693 400.284 498.179 400.044 498.696L397.976 497.957C398.345 497.096 398.838 496.425 399.453 495.945C400.075 495.458 400.752 495.12 401.485 494.929C402.223 494.732 402.95 494.634 403.664 494.634C404.119 494.634 404.642 494.689 405.233 494.8C405.83 494.904 406.406 495.123 406.96 495.455C407.52 495.788 407.985 496.289 408.354 496.96C408.723 497.631 408.908 498.53 408.908 499.656V509H406.729V507.08H406.618C406.47 507.387 406.224 507.717 405.879 508.067C405.535 508.418 405.076 508.717 404.504 508.963C403.931 509.209 403.233 509.332 402.408 509.332ZM402.74 507.375C403.602 507.375 404.328 507.206 404.919 506.867C405.516 506.529 405.966 506.092 406.267 505.556C406.575 505.021 406.729 504.457 406.729 503.866V501.872C406.637 501.983 406.433 502.085 406.119 502.177C405.812 502.263 405.455 502.34 405.048 502.408C404.648 502.469 404.258 502.525 403.876 502.574C403.5 502.617 403.196 502.654 402.962 502.685C402.396 502.759 401.866 502.879 401.374 503.045C400.887 503.205 400.494 503.448 400.192 503.774C399.896 504.094 399.749 504.531 399.749 505.085C399.749 505.842 400.029 506.415 400.589 506.803C401.155 507.184 401.872 507.375 402.74 507.375ZM425.959 509.295C424.629 509.295 423.484 508.982 422.524 508.354C421.564 507.726 420.825 506.861 420.308 505.759C419.791 504.657 419.533 503.399 419.533 501.983C419.533 500.543 419.797 499.272 420.327 498.17C420.862 497.062 421.607 496.197 422.561 495.575C423.521 494.947 424.642 494.634 425.922 494.634C426.919 494.634 427.818 494.818 428.618 495.188C429.418 495.557 430.074 496.074 430.585 496.739C431.095 497.403 431.412 498.179 431.536 499.065H429.357C429.19 498.419 428.821 497.847 428.249 497.348C427.682 496.843 426.919 496.591 425.959 496.591C425.109 496.591 424.365 496.812 423.724 497.256C423.09 497.693 422.595 498.311 422.238 499.112C421.887 499.906 421.712 500.838 421.712 501.909C421.712 503.005 421.884 503.959 422.229 504.771C422.58 505.584 423.072 506.215 423.706 506.664C424.346 507.113 425.097 507.338 425.959 507.338C426.525 507.338 427.039 507.24 427.501 507.043C427.962 506.846 428.353 506.562 428.673 506.193C428.993 505.824 429.221 505.381 429.357 504.864H431.536C431.412 505.701 431.108 506.455 430.621 507.126C430.141 507.79 429.504 508.32 428.71 508.714C427.922 509.102 427.005 509.295 425.959 509.295ZM440.482 509.295C439.202 509.295 438.079 508.991 437.112 508.381C436.152 507.772 435.401 506.92 434.859 505.824C434.324 504.728 434.056 503.448 434.056 501.983C434.056 500.506 434.324 499.216 434.859 498.114C435.401 497.013 436.152 496.157 437.112 495.548C438.079 494.938 439.202 494.634 440.482 494.634C441.763 494.634 442.883 494.938 443.843 495.548C444.809 496.157 445.56 497.013 446.096 498.114C446.638 499.216 446.908 500.506 446.908 501.983C446.908 503.448 446.638 504.728 446.096 505.824C445.56 506.92 444.809 507.772 443.843 508.381C442.883 508.991 441.763 509.295 440.482 509.295ZM440.482 507.338C441.455 507.338 442.255 507.089 442.883 506.59C443.511 506.092 443.975 505.436 444.277 504.624C444.579 503.811 444.729 502.931 444.729 501.983C444.729 501.035 444.579 500.152 444.277 499.333C443.975 498.514 443.511 497.853 442.883 497.348C442.255 496.843 441.455 496.591 440.482 496.591C439.51 496.591 438.71 496.843 438.082 497.348C437.454 497.853 436.989 498.514 436.688 499.333C436.386 500.152 436.235 501.035 436.235 501.983C436.235 502.931 436.386 503.811 436.688 504.624C436.989 505.436 437.454 506.092 438.082 506.59C438.71 507.089 439.51 507.338 440.482 507.338ZM452.414 500.469V509H450.235V494.818H452.34V497.034H452.524C452.857 496.314 453.361 495.735 454.039 495.298C454.716 494.855 455.59 494.634 456.661 494.634C457.621 494.634 458.461 494.83 459.181 495.224C459.901 495.612 460.462 496.203 460.862 496.997C461.262 497.785 461.462 498.782 461.462 499.989V509H459.283V500.136C459.283 499.022 458.994 498.154 458.415 497.533C457.836 496.905 457.042 496.591 456.033 496.591C455.337 496.591 454.716 496.742 454.168 497.043C453.626 497.345 453.198 497.785 452.884 498.364C452.57 498.942 452.414 499.644 452.414 500.469ZM471.611 494.818V496.665H464.262V494.818H471.611ZM466.404 491.42H468.583V504.938C468.583 505.553 468.672 506.015 468.85 506.322C469.035 506.624 469.269 506.827 469.552 506.932C469.842 507.03 470.146 507.08 470.466 507.08C470.706 507.08 470.903 507.067 471.057 507.043C471.211 507.012 471.334 506.987 471.426 506.969L471.87 508.926C471.722 508.982 471.516 509.037 471.251 509.092C470.986 509.154 470.651 509.185 470.245 509.185C469.629 509.185 469.026 509.052 468.435 508.788C467.85 508.523 467.364 508.12 466.976 507.578C466.595 507.036 466.404 506.353 466.404 505.528V491.42ZM474.889 509V494.818H476.994V496.96H477.142C477.4 496.259 477.868 495.689 478.545 495.252C479.222 494.815 479.985 494.597 480.835 494.597C480.995 494.597 481.195 494.6 481.435 494.606C481.675 494.612 481.857 494.621 481.98 494.634V496.849C481.906 496.831 481.737 496.803 481.472 496.766C481.213 496.723 480.94 496.702 480.65 496.702C479.961 496.702 479.345 496.846 478.804 497.136C478.268 497.419 477.843 497.813 477.529 498.317C477.222 498.816 477.068 499.385 477.068 500.026V509H474.889ZM489.892 509.295C488.612 509.295 487.489 508.991 486.522 508.381C485.562 507.772 484.811 506.92 484.27 505.824C483.734 504.728 483.466 503.448 483.466 501.983C483.466 500.506 483.734 499.216 484.27 498.114C484.811 497.013 485.562 496.157 486.522 495.548C487.489 494.938 488.612 494.634 489.892 494.634C491.173 494.634 492.293 494.938 493.253 495.548C494.22 496.157 494.971 497.013 495.506 498.114C496.048 499.216 496.319 500.506 496.319 501.983C496.319 503.448 496.048 504.728 495.506 505.824C494.971 506.92 494.22 507.772 493.253 508.381C492.293 508.991 491.173 509.295 489.892 509.295ZM489.892 507.338C490.865 507.338 491.665 507.089 492.293 506.59C492.921 506.092 493.386 505.436 493.687 504.624C493.989 503.811 494.14 502.931 494.14 501.983C494.14 501.035 493.989 500.152 493.687 499.333C493.386 498.514 492.921 497.853 492.293 497.348C491.665 496.843 490.865 496.591 489.892 496.591C488.92 496.591 488.12 496.843 487.492 497.348C486.864 497.853 486.399 498.514 486.098 499.333C485.796 500.152 485.645 501.035 485.645 501.983C485.645 502.931 485.796 503.811 486.098 504.624C486.399 505.436 486.864 506.092 487.492 506.59C488.12 507.089 488.92 507.338 489.892 507.338ZM501.824 490.091V509H499.645V490.091H501.824ZM511.761 509.295C510.394 509.295 509.215 508.994 508.224 508.391C507.24 507.781 506.479 506.932 505.944 505.842C505.415 504.747 505.15 503.473 505.15 502.02C505.15 500.567 505.415 499.287 505.944 498.179C506.479 497.065 507.224 496.197 508.178 495.575C509.138 494.947 510.259 494.634 511.539 494.634C512.278 494.634 513.007 494.757 513.727 495.003C514.447 495.249 515.103 495.649 515.694 496.203C516.285 496.751 516.756 497.477 517.107 498.382C517.457 499.287 517.633 500.401 517.633 501.724V502.648H506.701V500.764H515.417C515.417 499.964 515.257 499.25 514.937 498.622C514.623 497.994 514.174 497.499 513.589 497.136C513.01 496.772 512.327 496.591 511.539 496.591C510.671 496.591 509.92 496.806 509.286 497.237C508.658 497.662 508.175 498.216 507.837 498.899C507.498 499.582 507.329 500.315 507.329 501.097V502.352C507.329 503.423 507.513 504.331 507.883 505.076C508.258 505.815 508.778 506.378 509.443 506.766C510.108 507.147 510.88 507.338 511.761 507.338C512.333 507.338 512.85 507.258 513.312 507.098C513.78 506.932 514.183 506.686 514.521 506.359C514.86 506.027 515.121 505.615 515.306 505.122L517.411 505.713C517.19 506.427 516.817 507.055 516.294 507.597C515.771 508.132 515.125 508.551 514.355 508.852C513.586 509.148 512.721 509.295 511.761 509.295ZM534.428 494.818V496.665H527.078V494.818H534.428ZM529.22 491.42H531.399V504.938C531.399 505.553 531.488 506.015 531.667 506.322C531.852 506.624 532.085 506.827 532.369 506.932C532.658 507.03 532.963 507.08 533.283 507.08C533.523 507.08 533.72 507.067 533.874 507.043C534.027 507.012 534.151 506.987 534.243 506.969L534.686 508.926C534.538 508.982 534.332 509.037 534.067 509.092C533.803 509.154 533.467 509.185 533.061 509.185C532.446 509.185 531.842 509.052 531.251 508.788C530.667 508.523 530.18 508.12 529.793 507.578C529.411 507.036 529.22 506.353 529.22 505.528V491.42ZM543.314 509.295C542.034 509.295 540.911 508.991 539.944 508.381C538.984 507.772 538.233 506.92 537.691 505.824C537.156 504.728 536.888 503.448 536.888 501.983C536.888 500.506 537.156 499.216 537.691 498.114C538.233 497.013 538.984 496.157 539.944 495.548C540.911 494.938 542.034 494.634 543.314 494.634C544.595 494.634 545.715 494.938 546.675 495.548C547.641 496.157 548.392 497.013 548.928 498.114C549.47 499.216 549.74 500.506 549.74 501.983C549.74 503.448 549.47 504.728 548.928 505.824C548.392 506.92 547.641 507.772 546.675 508.381C545.715 508.991 544.595 509.295 543.314 509.295ZM543.314 507.338C544.287 507.338 545.087 507.089 545.715 506.59C546.343 506.092 546.807 505.436 547.109 504.624C547.411 503.811 547.561 502.931 547.561 501.983C547.561 501.035 547.411 500.152 547.109 499.333C546.807 498.514 546.343 497.853 545.715 497.348C545.087 496.843 544.287 496.591 543.314 496.591C542.342 496.591 541.542 496.843 540.914 497.348C540.286 497.853 539.821 498.514 539.52 499.333C539.218 500.152 539.067 501.035 539.067 501.983C539.067 502.931 539.218 503.811 539.52 504.624C539.821 505.436 540.286 506.092 540.914 506.59C541.542 507.089 542.342 507.338 543.314 507.338ZM559.234 494.818V496.665H551.885V494.818H559.234ZM554.027 491.42H556.206V504.938C556.206 505.553 556.295 506.015 556.474 506.322C556.658 506.624 556.892 506.827 557.175 506.932C557.465 507.03 557.769 507.08 558.089 507.08C558.329 507.08 558.526 507.067 558.68 507.043C558.834 507.012 558.957 506.987 559.05 506.969L559.493 508.926C559.345 508.982 559.139 509.037 558.874 509.092C558.609 509.154 558.274 509.185 557.868 509.185C557.252 509.185 556.649 509.052 556.058 508.788C555.473 508.523 554.987 508.12 554.599 507.578C554.218 507.036 554.027 506.353 554.027 505.528V491.42ZM566.685 509.332C565.787 509.332 564.971 509.163 564.238 508.825C563.506 508.48 562.924 507.984 562.493 507.338C562.063 506.686 561.847 505.898 561.847 504.974C561.847 504.162 562.007 503.503 562.327 502.999C562.647 502.488 563.075 502.088 563.611 501.798C564.146 501.509 564.737 501.294 565.383 501.152C566.036 501.004 566.691 500.887 567.35 500.801C568.212 500.69 568.91 500.607 569.446 500.552C569.988 500.49 570.381 500.389 570.628 500.247C570.88 500.106 571.006 499.859 571.006 499.509V499.435C571.006 498.524 570.757 497.816 570.258 497.311C569.766 496.806 569.018 496.554 568.015 496.554C566.974 496.554 566.159 496.782 565.568 497.237C564.977 497.693 564.562 498.179 564.322 498.696L562.253 497.957C562.623 497.096 563.115 496.425 563.731 495.945C564.352 495.458 565.029 495.12 565.762 494.929C566.501 494.732 567.227 494.634 567.941 494.634C568.396 494.634 568.92 494.689 569.51 494.8C570.108 494.904 570.683 495.123 571.237 495.455C571.797 495.788 572.262 496.289 572.631 496.96C573.001 497.631 573.185 498.53 573.185 499.656V509H571.006V507.08H570.895C570.748 507.387 570.501 507.717 570.157 508.067C569.812 508.418 569.354 508.717 568.781 508.963C568.209 509.209 567.51 509.332 566.685 509.332ZM567.018 507.375C567.879 507.375 568.606 507.206 569.197 506.867C569.794 506.529 570.243 506.092 570.545 505.556C570.852 505.021 571.006 504.457 571.006 503.866V501.872C570.914 501.983 570.711 502.085 570.397 502.177C570.089 502.263 569.732 502.34 569.326 502.408C568.926 502.469 568.535 502.525 568.153 502.574C567.778 502.617 567.473 502.654 567.239 502.685C566.673 502.759 566.144 502.879 565.651 503.045C565.165 503.205 564.771 503.448 564.469 503.774C564.174 504.094 564.026 504.531 564.026 505.085C564.026 505.842 564.306 506.415 564.866 506.803C565.433 507.184 566.15 507.375 567.018 507.375ZM579.341 490.091V509H577.162V490.091H579.341ZM596 509.295C594.818 509.295 593.775 508.997 592.87 508.4C591.965 507.797 591.257 506.947 590.746 505.852C590.235 504.75 589.98 503.448 589.98 501.946C589.98 500.456 590.235 499.164 590.746 498.068C591.257 496.973 591.968 496.126 592.879 495.529C593.79 494.932 594.843 494.634 596.037 494.634C596.96 494.634 597.689 494.787 598.225 495.095C598.767 495.397 599.179 495.741 599.462 496.129C599.751 496.511 599.976 496.825 600.136 497.071H600.321V490.091H602.5V509H600.395V506.821H600.136C599.976 507.08 599.748 507.406 599.453 507.8C599.157 508.187 598.736 508.535 598.188 508.843C597.64 509.145 596.911 509.295 596 509.295ZM596.295 507.338C597.169 507.338 597.908 507.11 598.511 506.655C599.114 506.193 599.573 505.556 599.887 504.744C600.201 503.925 600.358 502.98 600.358 501.909C600.358 500.85 600.204 499.924 599.896 499.13C599.588 498.33 599.133 497.708 598.53 497.265C597.926 496.816 597.182 496.591 596.295 496.591C595.372 496.591 594.603 496.828 593.987 497.302C593.378 497.77 592.919 498.407 592.611 499.213C592.31 500.013 592.159 500.912 592.159 501.909C592.159 502.919 592.313 503.836 592.621 504.661C592.934 505.479 593.396 506.132 594.006 506.618C594.621 507.098 595.384 507.338 596.295 507.338ZM610.966 509.332C610.068 509.332 609.252 509.163 608.52 508.825C607.787 508.48 607.206 507.984 606.775 507.338C606.344 506.686 606.128 505.898 606.128 504.974C606.128 504.162 606.288 503.503 606.608 502.999C606.929 502.488 607.356 502.088 607.892 501.798C608.427 501.509 609.018 501.294 609.665 501.152C610.317 501.004 610.973 500.887 611.631 500.801C612.493 500.69 613.192 500.607 613.727 500.552C614.269 500.49 614.663 500.389 614.909 500.247C615.161 500.106 615.287 499.859 615.287 499.509V499.435C615.287 498.524 615.038 497.816 614.54 497.311C614.047 496.806 613.299 496.554 612.296 496.554C611.256 496.554 610.44 496.782 609.849 497.237C609.258 497.693 608.843 498.179 608.603 498.696L606.535 497.957C606.904 497.096 607.396 496.425 608.012 495.945C608.634 495.458 609.311 495.12 610.043 494.929C610.782 494.732 611.508 494.634 612.222 494.634C612.678 494.634 613.201 494.689 613.792 494.8C614.389 494.904 614.964 495.123 615.518 495.455C616.078 495.788 616.543 496.289 616.912 496.96C617.282 497.631 617.466 498.53 617.466 499.656V509H615.287V507.08H615.177C615.029 507.387 614.783 507.717 614.438 508.067C614.093 508.418 613.635 508.717 613.062 508.963C612.49 509.209 611.791 509.332 610.966 509.332ZM611.299 507.375C612.161 507.375 612.887 507.206 613.478 506.867C614.075 506.529 614.524 506.092 614.826 505.556C615.134 505.021 615.287 504.457 615.287 503.866V501.872C615.195 501.983 614.992 502.085 614.678 502.177C614.37 502.263 614.013 502.34 613.607 502.408C613.207 502.469 612.816 502.525 612.434 502.574C612.059 502.617 611.754 502.654 611.52 502.685C610.954 502.759 610.425 502.879 609.932 503.045C609.446 503.205 609.052 503.448 608.751 503.774C608.455 504.094 608.307 504.531 608.307 505.085C608.307 505.842 608.587 506.415 609.148 506.803C609.714 507.184 610.431 507.375 611.299 507.375ZM638.801 497.994L636.844 498.548C636.721 498.222 636.539 497.905 636.299 497.597C636.065 497.283 635.745 497.025 635.339 496.822C634.933 496.619 634.413 496.517 633.779 496.517C632.911 496.517 632.188 496.717 631.609 497.117C631.037 497.511 630.75 498.013 630.75 498.622C630.75 499.164 630.947 499.592 631.341 499.906C631.735 500.219 632.351 500.481 633.188 500.69L635.293 501.207C636.561 501.515 637.506 501.986 638.127 502.62C638.749 503.248 639.06 504.057 639.06 505.048C639.06 505.861 638.826 506.587 638.358 507.227C637.897 507.867 637.25 508.372 636.419 508.741C635.588 509.111 634.622 509.295 633.52 509.295C632.074 509.295 630.877 508.982 629.929 508.354C628.981 507.726 628.381 506.809 628.128 505.602L630.196 505.085C630.393 505.848 630.766 506.421 631.314 506.803C631.868 507.184 632.591 507.375 633.483 507.375C634.499 507.375 635.305 507.16 635.902 506.729C636.506 506.292 636.807 505.768 636.807 505.159C636.807 504.667 636.635 504.254 636.29 503.922C635.945 503.583 635.416 503.331 634.702 503.165L632.338 502.611C631.04 502.303 630.086 501.826 629.476 501.18C628.873 500.527 628.571 499.712 628.571 498.733C628.571 497.933 628.796 497.225 629.245 496.609C629.701 495.994 630.319 495.511 631.101 495.16C631.889 494.809 632.782 494.634 633.779 494.634C635.182 494.634 636.284 494.941 637.084 495.557C637.891 496.172 638.463 496.985 638.801 497.994ZM651.278 503.202V494.818H653.456V509H651.278V506.599H651.13C650.797 507.32 650.28 507.932 649.579 508.437C648.877 508.935 647.991 509.185 646.92 509.185C646.033 509.185 645.245 508.991 644.556 508.603C643.867 508.209 643.325 507.618 642.931 506.83C642.537 506.036 642.34 505.036 642.34 503.83V494.818H644.519V503.682C644.519 504.716 644.808 505.541 645.387 506.156C645.972 506.772 646.716 507.08 647.621 507.08C648.163 507.08 648.714 506.941 649.274 506.664C649.84 506.387 650.314 505.962 650.696 505.39C651.084 504.817 651.278 504.088 651.278 503.202ZM661.621 509.332C660.722 509.332 659.906 509.163 659.174 508.825C658.442 508.48 657.86 507.984 657.429 507.338C656.998 506.686 656.783 505.898 656.783 504.974C656.783 504.162 656.943 503.503 657.263 502.999C657.583 502.488 658.011 502.088 658.546 501.798C659.082 501.509 659.673 501.294 660.319 501.152C660.971 501.004 661.627 500.887 662.286 500.801C663.147 500.69 663.846 500.607 664.381 500.552C664.923 500.49 665.317 500.389 665.563 500.247C665.816 500.106 665.942 499.859 665.942 499.509V499.435C665.942 498.524 665.692 497.816 665.194 497.311C664.701 496.806 663.954 496.554 662.95 496.554C661.91 496.554 661.094 496.782 660.504 497.237C659.913 497.693 659.497 498.179 659.257 498.696L657.189 497.957C657.558 497.096 658.051 496.425 658.666 495.945C659.288 495.458 659.965 495.12 660.697 494.929C661.436 494.732 662.162 494.634 662.876 494.634C663.332 494.634 663.855 494.689 664.446 494.8C665.043 494.904 665.619 495.123 666.173 495.455C666.733 495.788 667.197 496.289 667.567 496.96C667.936 497.631 668.121 498.53 668.121 499.656V509H665.942V507.08H665.831C665.683 507.387 665.437 507.717 665.092 508.067C664.748 508.418 664.289 508.717 663.717 508.963C663.144 509.209 662.446 509.332 661.621 509.332ZM661.953 507.375C662.815 507.375 663.541 507.206 664.132 506.867C664.729 506.529 665.179 506.092 665.48 505.556C665.788 505.021 665.942 504.457 665.942 503.866V501.872C665.849 501.983 665.646 502.085 665.332 502.177C665.025 502.263 664.668 502.34 664.261 502.408C663.861 502.469 663.47 502.525 663.089 502.574C662.713 502.617 662.409 502.654 662.175 502.685C661.608 502.759 661.079 502.879 660.587 503.045C660.1 503.205 659.706 503.448 659.405 503.774C659.109 504.094 658.962 504.531 658.962 505.085C658.962 505.842 659.242 506.415 659.802 506.803C660.368 507.184 661.085 507.375 661.953 507.375ZM691.007 494.818L685.763 509H683.547L678.302 494.818H680.666L684.581 506.119H684.729L688.643 494.818H691.007ZM693.883 509V494.818H696.062V509H693.883ZM694.991 492.455C694.566 492.455 694.2 492.31 693.892 492.021C693.591 491.731 693.44 491.384 693.44 490.977C693.44 490.571 693.591 490.223 693.892 489.934C694.2 489.645 694.566 489.5 694.991 489.5C695.416 489.5 695.779 489.645 696.08 489.934C696.388 490.223 696.542 490.571 696.542 490.977C696.542 491.384 696.388 491.731 696.08 492.021C695.779 492.31 695.416 492.455 694.991 492.455ZM705.408 509.295C704.226 509.295 703.183 508.997 702.278 508.4C701.373 507.797 700.665 506.947 700.154 505.852C699.644 504.75 699.388 503.448 699.388 501.946C699.388 500.456 699.644 499.164 700.154 498.068C700.665 496.973 701.376 496.126 702.287 495.529C703.198 494.932 704.251 494.634 705.445 494.634C706.368 494.634 707.098 494.787 707.633 495.095C708.175 495.397 708.587 495.741 708.87 496.129C709.16 496.511 709.384 496.825 709.544 497.071H709.729V490.091H711.908V509H709.803V506.821H709.544C709.384 507.08 709.157 507.406 708.861 507.8C708.566 508.187 708.144 508.535 707.596 508.843C707.048 509.145 706.319 509.295 705.408 509.295ZM705.703 507.338C706.578 507.338 707.316 507.11 707.919 506.655C708.523 506.193 708.981 505.556 709.295 504.744C709.609 503.925 709.766 502.98 709.766 501.909C709.766 500.85 709.612 499.924 709.304 499.13C708.997 498.33 708.541 497.708 707.938 497.265C707.335 496.816 706.59 496.591 705.703 496.591C704.78 496.591 704.011 496.828 703.395 497.302C702.786 497.77 702.327 498.407 702.02 499.213C701.718 500.013 701.567 500.912 701.567 501.909C701.567 502.919 701.721 503.836 702.029 504.661C702.343 505.479 702.804 506.132 703.414 506.618C704.029 507.098 704.792 507.338 705.703 507.338ZM720.375 509.332C719.476 509.332 718.66 509.163 717.928 508.825C717.195 508.48 716.614 507.984 716.183 507.338C715.752 506.686 715.537 505.898 715.537 504.974C715.537 504.162 715.697 503.503 716.017 502.999C716.337 502.488 716.765 502.088 717.3 501.798C717.836 501.509 718.426 501.294 719.073 501.152C719.725 501.004 720.381 500.887 721.039 500.801C721.901 500.69 722.6 500.607 723.135 500.552C723.677 500.49 724.071 500.389 724.317 500.247C724.569 500.106 724.696 499.859 724.696 499.509V499.435C724.696 498.524 724.446 497.816 723.948 497.311C723.455 496.806 722.708 496.554 721.704 496.554C720.664 496.554 719.848 496.782 719.257 497.237C718.667 497.693 718.251 498.179 718.011 498.696L715.943 497.957C716.312 497.096 716.805 496.425 717.42 495.945C718.042 495.458 718.719 495.12 719.451 494.929C720.19 494.732 720.916 494.634 721.63 494.634C722.086 494.634 722.609 494.689 723.2 494.8C723.797 494.904 724.373 495.123 724.926 495.455C725.487 495.788 725.951 496.289 726.321 496.96C726.69 497.631 726.875 498.53 726.875 499.656V509H724.696V507.08H724.585C724.437 507.387 724.191 507.717 723.846 508.067C723.502 508.418 723.043 508.717 722.471 508.963C721.898 509.209 721.199 509.332 720.375 509.332ZM720.707 507.375C721.569 507.375 722.295 507.206 722.886 506.867C723.483 506.529 723.932 506.092 724.234 505.556C724.542 505.021 724.696 504.457 724.696 503.866V501.872C724.603 501.983 724.4 502.085 724.086 502.177C723.779 502.263 723.422 502.34 723.015 502.408C722.615 502.469 722.224 502.525 721.843 502.574C721.467 502.617 721.163 502.654 720.929 502.685C720.362 502.759 719.833 502.879 719.341 503.045C718.854 503.205 718.46 503.448 718.159 503.774C717.863 504.094 717.716 504.531 717.716 505.085C717.716 505.842 717.996 506.415 718.556 506.803C719.122 507.184 719.839 507.375 720.707 507.375ZM744.48 494.818V496.665H736.835V494.818H744.48ZM739.124 509V492.861C739.124 492.048 739.315 491.371 739.697 490.83C740.079 490.288 740.574 489.882 741.183 489.611C741.793 489.34 742.436 489.205 743.113 489.205C743.649 489.205 744.086 489.248 744.424 489.334C744.763 489.42 745.015 489.5 745.181 489.574L744.553 491.457C744.443 491.42 744.289 491.374 744.092 491.319C743.901 491.263 743.649 491.236 743.335 491.236C742.615 491.236 742.094 491.417 741.774 491.781C741.46 492.144 741.303 492.676 741.303 493.378V509H739.124ZM747.533 509V494.818H749.712V509H747.533ZM748.641 492.455C748.217 492.455 747.85 492.31 747.543 492.021C747.241 491.731 747.09 491.384 747.09 490.977C747.09 490.571 747.241 490.223 747.543 489.934C747.85 489.645 748.217 489.5 748.641 489.5C749.066 489.5 749.429 489.645 749.731 489.934C750.039 490.223 750.192 490.571 750.192 490.977C750.192 491.384 750.039 491.731 749.731 492.021C749.429 492.31 749.066 492.455 748.641 492.455ZM755.882 500.469V509H753.703V494.818H755.808V497.034H755.993C756.325 496.314 756.83 495.735 757.507 495.298C758.184 494.855 759.058 494.634 760.129 494.634C761.09 494.634 761.93 494.83 762.65 495.224C763.37 495.612 763.93 496.203 764.33 496.997C764.731 497.785 764.931 498.782 764.931 499.989V509H762.752V500.136C762.752 499.022 762.462 498.154 761.884 497.533C761.305 496.905 760.511 496.591 759.502 496.591C758.806 496.591 758.184 496.742 757.637 497.043C757.095 497.345 756.667 497.785 756.353 498.364C756.039 498.942 755.882 499.644 755.882 500.469ZM773.086 509.332C772.187 509.332 771.371 509.163 770.639 508.825C769.906 508.48 769.325 507.984 768.894 507.338C768.463 506.686 768.248 505.898 768.248 504.974C768.248 504.162 768.408 503.503 768.728 502.999C769.048 502.488 769.475 502.088 770.011 501.798C770.547 501.509 771.137 501.294 771.784 501.152C772.436 501.004 773.092 500.887 773.75 500.801C774.612 500.69 775.311 500.607 775.846 500.552C776.388 500.49 776.782 500.389 777.028 500.247C777.28 500.106 777.407 499.859 777.407 499.509V499.435C777.407 498.524 777.157 497.816 776.659 497.311C776.166 496.806 775.418 496.554 774.415 496.554C773.375 496.554 772.559 496.782 771.968 497.237C771.377 497.693 770.962 498.179 770.722 498.696L768.654 497.957C769.023 497.096 769.516 496.425 770.131 495.945C770.753 495.458 771.43 495.12 772.162 494.929C772.901 494.732 773.627 494.634 774.341 494.634C774.797 494.634 775.32 494.689 775.911 494.8C776.508 494.904 777.083 495.123 777.637 495.455C778.198 495.788 778.662 496.289 779.032 496.96C779.401 497.631 779.586 498.53 779.586 499.656V509H777.407V507.08H777.296C777.148 507.387 776.902 507.717 776.557 508.067C776.212 508.418 775.754 508.717 775.181 508.963C774.609 509.209 773.91 509.332 773.086 509.332ZM773.418 507.375C774.28 507.375 775.006 507.206 775.597 506.867C776.194 506.529 776.643 506.092 776.945 505.556C777.253 505.021 777.407 504.457 777.407 503.866V501.872C777.314 501.983 777.111 502.085 776.797 502.177C776.489 502.263 776.132 502.34 775.726 502.408C775.326 502.469 774.935 502.525 774.554 502.574C774.178 502.617 773.873 502.654 773.64 502.685C773.073 502.759 772.544 502.879 772.051 503.045C771.565 503.205 771.171 503.448 770.87 503.774C770.574 504.094 770.426 504.531 770.426 505.085C770.426 505.842 770.707 506.415 771.267 506.803C771.833 507.184 772.55 507.375 773.418 507.375ZM785.742 500.469V509H783.563V494.818H785.668V497.034H785.852C786.185 496.314 786.69 495.735 787.367 495.298C788.044 494.855 788.918 494.634 789.989 494.634C790.949 494.634 791.789 494.83 792.509 495.224C793.23 495.612 793.79 496.203 794.19 496.997C794.59 497.785 794.79 498.782 794.79 499.989V509H792.611V500.136C792.611 499.022 792.322 498.154 791.743 497.533C791.164 496.905 790.37 496.591 789.361 496.591C788.665 496.591 788.044 496.742 787.496 497.043C786.954 497.345 786.526 497.785 786.213 498.364C785.899 498.942 785.742 499.644 785.742 500.469ZM804.533 509.295C803.203 509.295 802.059 508.982 801.098 508.354C800.138 507.726 799.4 506.861 798.882 505.759C798.365 504.657 798.107 503.399 798.107 501.983C798.107 500.543 798.372 499.272 798.901 498.17C799.436 497.062 800.181 496.197 801.135 495.575C802.096 494.947 803.216 494.634 804.496 494.634C805.493 494.634 806.392 494.818 807.192 495.188C807.992 495.557 808.648 496.074 809.159 496.739C809.67 497.403 809.987 498.179 810.11 499.065H807.931C807.765 498.419 807.395 497.847 806.823 497.348C806.257 496.843 805.493 496.591 804.533 496.591C803.684 496.591 802.939 496.812 802.299 497.256C801.665 497.693 801.169 498.311 800.812 499.112C800.461 499.906 800.286 500.838 800.286 501.909C800.286 503.005 800.458 503.959 800.803 504.771C801.154 505.584 801.646 506.215 802.28 506.664C802.92 507.113 803.671 507.338 804.533 507.338C805.099 507.338 805.613 507.24 806.075 507.043C806.537 506.846 806.927 506.562 807.248 506.193C807.568 505.824 807.795 505.381 807.931 504.864H810.11C809.987 505.701 809.682 506.455 809.196 507.126C808.716 507.79 808.078 508.32 807.284 508.714C806.497 509.102 805.579 509.295 804.533 509.295ZM819.241 509.295C817.875 509.295 816.696 508.994 815.705 508.391C814.72 507.781 813.96 506.932 813.424 505.842C812.895 504.747 812.63 503.473 812.63 502.02C812.63 500.567 812.895 499.287 813.424 498.179C813.96 497.065 814.705 496.197 815.659 495.575C816.619 494.947 817.739 494.634 819.02 494.634C819.758 494.634 820.488 494.757 821.208 495.003C821.928 495.249 822.583 495.649 823.174 496.203C823.765 496.751 824.236 497.477 824.587 498.382C824.938 499.287 825.113 500.401 825.113 501.724V502.648H814.181V500.764H822.897C822.897 499.964 822.737 499.25 822.417 498.622C822.103 497.994 821.654 497.499 821.069 497.136C820.491 496.772 819.807 496.591 819.02 496.591C818.152 496.591 817.401 496.806 816.767 497.237C816.139 497.662 815.656 498.216 815.317 498.899C814.979 499.582 814.809 500.315 814.809 501.097V502.352C814.809 503.423 814.994 504.331 815.363 505.076C815.739 505.815 816.259 506.378 816.924 506.766C817.588 507.147 818.361 507.338 819.241 507.338C819.814 507.338 820.331 507.258 820.792 507.098C821.26 506.932 821.663 506.686 822.002 506.359C822.34 506.027 822.602 505.615 822.787 505.122L824.892 505.713C824.67 506.427 824.298 507.055 823.775 507.597C823.251 508.132 822.605 508.551 821.836 508.852C821.066 509.148 820.201 509.295 819.241 509.295ZM828.428 509V494.818H830.607V509H828.428ZM829.536 492.455C829.111 492.455 828.745 492.31 828.437 492.021C828.136 491.731 827.985 491.384 827.985 490.977C827.985 490.571 828.136 490.223 828.437 489.934C828.745 489.645 829.111 489.5 829.536 489.5C829.961 489.5 830.324 489.645 830.625 489.934C830.933 490.223 831.087 490.571 831.087 490.977C831.087 491.384 830.933 491.731 830.625 492.021C830.324 492.31 829.961 492.455 829.536 492.455ZM834.598 509V494.818H836.703V496.96H836.851C837.109 496.259 837.577 495.689 838.254 495.252C838.931 494.815 839.694 494.597 840.544 494.597C840.704 494.597 840.904 494.6 841.144 494.606C841.384 494.612 841.566 494.621 841.689 494.634V496.849C841.615 496.831 841.446 496.803 841.181 496.766C840.922 496.723 840.648 496.702 840.359 496.702C839.67 496.702 839.054 496.846 838.513 497.136C837.977 497.419 837.552 497.813 837.238 498.317C836.931 498.816 836.777 499.385 836.777 500.026V509H834.598ZM848.445 509.332C847.546 509.332 846.731 509.163 845.998 508.825C845.266 508.48 844.684 507.984 844.253 507.338C843.822 506.686 843.607 505.898 843.607 504.974C843.607 504.162 843.767 503.503 844.087 502.999C844.407 502.488 844.835 502.088 845.37 501.798C845.906 501.509 846.497 501.294 847.143 501.152C847.796 501.004 848.451 500.887 849.11 500.801C849.971 500.69 850.67 500.607 851.206 500.552C851.747 500.49 852.141 500.389 852.387 500.247C852.64 500.106 852.766 499.859 852.766 499.509V499.435C852.766 498.524 852.517 497.816 852.018 497.311C851.526 496.806 850.778 496.554 849.775 496.554C848.734 496.554 847.919 496.782 847.328 497.237C846.737 497.693 846.321 498.179 846.081 498.696L844.013 497.957C844.382 497.096 844.875 496.425 845.49 495.945C846.112 495.458 846.789 495.12 847.522 494.929C848.26 494.732 848.987 494.634 849.701 494.634C850.156 494.634 850.679 494.689 851.27 494.8C851.867 494.904 852.443 495.123 852.997 495.455C853.557 495.788 854.022 496.289 854.391 496.96C854.76 497.631 854.945 498.53 854.945 499.656V509H852.766V507.08H852.655C852.507 507.387 852.261 507.717 851.917 508.067C851.572 508.418 851.113 508.717 850.541 508.963C849.968 509.209 849.27 509.332 848.445 509.332ZM848.777 507.375C849.639 507.375 850.365 507.206 850.956 506.867C851.553 506.529 852.003 506.092 852.304 505.556C852.612 505.021 852.766 504.457 852.766 503.866V501.872C852.674 501.983 852.471 502.085 852.157 502.177C851.849 502.263 851.492 502.34 851.086 502.408C850.685 502.469 850.295 502.525 849.913 502.574C849.538 502.617 849.233 502.654 848.999 502.685C848.433 502.759 847.903 502.879 847.411 503.045C846.925 503.205 846.531 503.448 846.229 503.774C845.934 504.094 845.786 504.531 845.786 505.085C845.786 505.842 846.066 506.415 846.626 506.803C847.192 507.184 847.909 507.375 848.777 507.375ZM860.51 509.148C860.055 509.148 859.664 508.985 859.338 508.658C859.011 508.332 858.848 507.941 858.848 507.486C858.848 507.03 859.011 506.639 859.338 506.313C859.664 505.987 860.055 505.824 860.51 505.824C860.966 505.824 861.356 505.987 861.683 506.313C862.009 506.639 862.172 507.03 862.172 507.486C862.172 507.787 862.095 508.064 861.941 508.317C861.794 508.569 861.593 508.772 861.341 508.926C861.095 509.074 860.818 509.148 860.51 509.148Z" fill="white" fill-opacity="0.5"/>
</g>
<defs>
<clipPath id="clip0_30_156">
<rect width="1200" height="630" fill="white"/>
</clipPath>
</defs>
</svg>
